<svg width="51" height="45" viewBox="0 0 51 45" fill="none" xmlns="http://www.w3.org/2000/svg">
<path d="M9.27791 43.7744V40.8838C9.29332 40.6406 9.26145 40.3967 9.18443 40.1682C9.10741 39.9397 8.98701 39.7319 8.83125 39.5587C8.6755 39.3854 8.48797 39.2507 8.28118 39.1636C8.07439 39.0764 7.8531 39.0387 7.63204 39.0531C7.34273 39.0324 7.05366 39.0974 6.79496 39.2414C6.53627 39.3855 6.31742 39.6033 6.16122 39.8721C6.01887 39.6113 5.81526 39.3976 5.57182 39.2535C5.32838 39.1093 5.05413 39.0401 4.77795 39.0531C4.53721 39.0398 4.29748 39.0959 4.0825 39.2159C3.86752 39.3359 3.68475 39.5156 3.55227 39.7372V39.1688H2.64172V43.7744H3.56098V41.221C3.5411 41.0634 3.55318 40.903 3.59635 40.7512C3.63951 40.5994 3.71268 40.46 3.81061 40.343C3.90854 40.226 4.0288 40.1343 4.16275 40.0746C4.29669 40.0148 4.44101 39.9884 4.58532 39.9974C5.1894 39.9974 5.49586 40.4309 5.49586 41.2113V43.7744H6.41512V41.221C6.39674 41.0637 6.40986 40.9039 6.45357 40.7528C6.49728 40.6018 6.57052 40.463 6.66814 40.3464C6.76576 40.2298 6.8854 40.1381 7.01865 40.0778C7.15189 40.0175 7.29552 39.9901 7.43944 39.9974C8.061 39.9974 8.35866 40.4309 8.35866 41.2113V43.7744H9.27791ZM22.883 39.1688H21.3947V37.7717H20.4754V39.1688H19.6262V40.0841H20.4754V42.1845C20.4754 43.254 20.8519 43.89 21.9287 43.89C22.331 43.8913 22.7255 43.7677 23.0668 43.5334L22.8042 42.6759C22.5601 42.8362 22.2829 42.9257 21.9988 42.9361C21.5435 42.9361 21.3947 42.6277 21.3947 42.1653V40.0841H22.883V39.1688ZM30.6486 39.0531C30.4266 39.0459 30.2069 39.1048 30.0128 39.2235C29.8186 39.3422 29.6572 39.5163 29.5455 39.7276V39.1688H28.6437V43.7744H29.5542V41.1921C29.5542 40.4309 29.8519 40.007 30.4473 40.007C30.642 40.004 30.8354 40.0433 31.0163 40.1226L31.2964 39.1784C31.0885 39.0965 30.8694 39.0541 30.6486 39.0531ZM18.9083 39.5349C18.3929 39.1976 17.8004 39.0304 17.2011 39.0531C16.1417 39.0531 15.4589 39.6119 15.4589 40.5273C15.4589 41.2789 15.9667 41.7414 16.9034 41.8859L17.3324 41.9533C17.8314 42.0302 18.0678 42.1749 18.0678 42.435C18.0678 42.7915 17.7351 42.9939 17.1135 42.9939C16.6135 43.0097 16.1232 42.84 15.7215 42.5121L15.2925 43.2925C15.8229 43.7002 16.4581 43.9096 17.1048 43.89C18.3129 43.89 19.0133 43.2636 19.0133 42.3868C19.0133 41.5775 18.4618 41.1535 17.5513 41.009L17.1223 40.9415C16.7283 40.8838 16.4132 40.7971 16.4132 40.4888C16.4132 40.1515 16.7108 39.9492 17.2099 39.9492C17.6681 39.9568 18.1171 40.0927 18.5143 40.3442L18.9083 39.5349ZM43.2993 39.0531C43.0774 39.0459 42.8577 39.1048 42.6636 39.2235C42.4694 39.3422 42.308 39.5163 42.1963 39.7276V39.1688H41.2945V43.7744H42.205V41.1921C42.205 40.4309 42.5027 40.007 43.0979 40.007C43.2927 40.004 43.4861 40.0433 43.6671 40.1226L43.9473 39.1784C43.7393 39.0965 43.5202 39.0541 43.2993 39.0531ZM31.5678 41.4714C31.5557 41.7959 31.6054 42.1195 31.7138 42.4216C31.8222 42.7236 31.9868 42.9973 32.1971 43.2251C32.4074 43.4529 32.6587 43.6298 32.9348 43.7443C33.2109 43.8588 33.5058 43.9084 33.8004 43.89C34.347 43.9202 34.8841 43.7243 35.3061 43.3407L34.8684 42.5313C34.5536 42.7954 34.1698 42.9407 33.7741 42.9457C33.4328 42.9229 33.1124 42.7576 32.8781 42.4837C32.6439 42.2097 32.5134 41.8477 32.5134 41.4715C32.5134 41.0953 32.6439 40.7333 32.8781 40.4593C33.1124 40.1854 33.4328 40.0201 33.7741 39.9974C34.1699 40.0023 34.5537 40.1476 34.8684 40.4117L35.3061 39.6023C34.8841 39.2188 34.347 39.0229 33.8004 39.0531C33.5058 39.0347 33.211 39.0843 32.9349 39.1988C32.6588 39.3133 32.4075 39.4901 32.1972 39.7179C31.9869 39.9456 31.8223 40.2193 31.7139 40.5213C31.6055 40.8234 31.5557 41.147 31.5678 41.4714ZM40.0951 41.4714V39.1688H39.1846V39.7276C39.0291 39.5072 38.828 39.3309 38.598 39.2136C38.368 39.0962 38.1158 39.0412 37.8626 39.0531C37.2984 39.0836 36.7665 39.3517 36.3769 39.8019C35.9874 40.2521 35.7702 40.8499 35.7702 41.4715C35.7702 42.0932 35.9874 42.691 36.3769 43.1413C36.7665 43.5915 37.2984 43.8595 37.8626 43.89C38.1158 43.9019 38.368 43.8468 38.598 43.7295C38.828 43.6121 39.0292 43.4359 39.1846 43.2154V43.7744H40.0951V41.4714ZM36.7069 41.4714C36.721 41.1997 36.8071 40.9384 36.9546 40.7198C37.102 40.5012 37.3043 40.3349 37.5366 40.2414C37.7689 40.1479 38.021 40.1312 38.2618 40.1935C38.5026 40.2557 38.7216 40.3942 38.8917 40.5918C39.0619 40.7894 39.1758 41.0374 39.2193 41.3054C39.2629 41.5734 39.2343 41.8495 39.137 42.0998C39.0397 42.35 38.8779 42.5635 38.6717 42.7138C38.4655 42.8641 38.2238 42.9447 37.9764 42.9457C37.8031 42.9482 37.6311 42.9113 37.4713 42.8371C37.3116 42.7629 37.1675 42.6531 37.0483 42.5146C36.929 42.3761 36.8371 42.2119 36.7783 42.0323C36.7196 41.8528 36.6953 41.6618 36.7069 41.4714ZM25.7196 39.0531C25.1518 39.086 24.6176 39.3596 24.2292 39.8166C23.8407 40.2735 23.6282 40.8783 23.6361 41.504C23.644 42.1297 23.8718 42.7277 24.2717 43.1726C24.6716 43.6174 25.2125 43.8745 25.7809 43.89C26.4055 43.9141 27.0164 43.6843 27.4968 43.2443L27.0503 42.5025C26.7046 42.8074 26.2764 42.9769 25.8334 42.9842C25.5325 43.0121 25.2336 42.91 25 42.6996C24.7663 42.4891 24.6162 42.1869 24.5815 41.8568H27.6895C27.6982 41.7317 27.7069 41.6064 27.7069 41.4714C27.6982 40.0359 26.8927 39.0531 25.7196 39.0531ZM25.7021 39.9492C25.9771 39.9433 26.243 40.0576 26.4416 40.2671C26.6401 40.4766 26.7552 40.7642 26.7614 41.0669H24.5902C24.6062 40.7577 24.7315 40.4676 24.9392 40.2587C25.147 40.0499 25.4208 39.9388 25.7021 39.9492ZM48.5435 41.4714V37.3188H47.633V39.7276C47.4776 39.5072 47.2765 39.3309 47.0465 39.2136C46.8165 39.0962 46.5643 39.0412 46.311 39.0531C45.7468 39.0835 45.2149 39.3516 44.8254 39.8018C44.4358 40.252 44.2186 40.8499 44.2186 41.4715C44.2186 42.0932 44.4358 42.6911 44.8254 43.1413C45.2149 43.5915 45.7468 43.8596 46.311 43.89C46.5643 43.9019 46.8165 43.8468 47.0465 43.7295C47.2765 43.6121 47.4776 43.4359 47.633 43.2154V43.7744H48.5435V41.4714ZM50.0613 43.1069C50.1178 43.1065 50.1739 43.1187 50.226 43.1428C50.2761 43.1658 50.3218 43.1991 50.3606 43.241C50.3991 43.2827 50.4299 43.3322 50.4512 43.3868C50.4731 43.4429 50.4844 43.5033 50.4844 43.5644C50.4844 43.6254 50.4731 43.6859 50.4512 43.742C50.4297 43.7963 50.3989 43.8456 50.3606 43.8872C50.3217 43.9291 50.2761 43.9625 50.226 43.9859C50.174 44.0104 50.1179 44.0229 50.0613 44.0224C49.978 44.0234 49.8963 43.9973 49.8264 43.9474C49.7565 43.8975 49.7015 43.826 49.6683 43.742C49.6465 43.6859 49.6352 43.6254 49.6352 43.5644C49.6352 43.5033 49.6465 43.4429 49.6683 43.3868C49.6897 43.3323 49.7203 43.2828 49.7586 43.241C49.7973 43.1988 49.8432 43.1655 49.8937 43.1428C49.9468 43.1186 50.0038 43.1064 50.0613 43.1069ZM50.0613 43.9214C50.1044 43.9218 50.1472 43.9123 50.1868 43.8934C50.2248 43.8752 50.2593 43.8493 50.2887 43.8171C50.3491 43.7499 50.383 43.6592 50.383 43.5646C50.383 43.4701 50.3491 43.3793 50.2887 43.3121C50.2594 43.28 50.2248 43.2543 50.1868 43.2365C50.1471 43.2179 50.1044 43.2086 50.0613 43.209C50.0174 43.2086 49.9739 43.218 49.9334 43.2365C49.8947 43.254 49.8596 43.2797 49.8299 43.3121C49.7694 43.3793 49.7355 43.47 49.7355 43.5646C49.7355 43.6592 49.7694 43.7499 49.8299 43.8171C49.8596 43.8496 49.8948 43.8755 49.9334 43.8934C49.9738 43.9122 50.0174 43.9218 50.0613 43.9214ZM50.0858 43.3503C50.1267 43.3474 50.1673 43.3603 50.2005 43.3868C50.2138 43.3988 50.2243 43.414 50.2313 43.4313C50.2382 43.4485 50.2415 43.4673 50.2407 43.4861C50.2412 43.5023 50.2386 43.5183 50.2331 43.5333C50.2275 43.5483 50.2192 43.5618 50.2087 43.573C50.1833 43.5978 50.1512 43.6126 50.1174 43.6151L50.2438 43.7756H50.145L50.0277 43.6162H49.99V43.7756H49.9074V43.3503H50.0858ZM49.99 43.43V43.5434H50.0848C50.103 43.5444 50.1211 43.5394 50.1368 43.5292C50.1432 43.5246 50.1483 43.5181 50.1517 43.5105C50.1551 43.503 50.1566 43.4945 50.1561 43.4861C50.1565 43.4778 50.155 43.4696 50.1516 43.4622C50.1482 43.4548 50.1431 43.4485 50.1368 43.444C50.1211 43.4339 50.103 43.429 50.0848 43.43H49.99ZM45.1554 41.4714C45.1695 41.1997 45.2557 40.9384 45.4031 40.7199C45.5505 40.5013 45.7529 40.335 45.9852 40.2415C46.2175 40.148 46.4695 40.1314 46.7103 40.1937C46.9511 40.2559 47.17 40.3944 47.3402 40.592C47.5103 40.7895 47.6242 41.0376 47.6677 41.3055C47.7113 41.5735 47.6826 41.8496 47.5853 42.0999C47.488 42.3501 47.3263 42.5635 47.1201 42.7138C46.9138 42.8641 46.6721 42.9447 46.4248 42.9457C46.2514 42.9482 46.0795 42.9113 45.9198 42.8371C45.76 42.7629 45.616 42.653 45.4967 42.5145C45.3775 42.376 45.2856 42.2118 45.2268 42.0323C45.1681 41.8528 45.1438 41.6618 45.1554 41.4714ZM14.4083 41.4714V39.1688H13.4978V39.7276C13.3423 39.5072 13.1412 39.3309 12.9112 39.2136C12.6812 39.0962 12.429 39.0412 12.1758 39.0531C11.6116 39.0836 11.0797 39.3517 10.6902 39.8019C10.3006 40.2521 10.0834 40.8499 10.0834 41.4715C10.0834 42.0932 10.3006 42.691 10.6902 43.1413C11.0797 43.5915 11.6116 43.8595 12.1758 43.89C12.4291 43.9019 12.6812 43.8468 12.9112 43.7295C13.1412 43.6121 13.3423 43.4359 13.4978 43.2154V43.7744H14.4083V41.4714ZM11.0202 41.4714C11.0343 41.1997 11.1204 40.9384 11.2679 40.7199C11.4153 40.5013 11.6177 40.335 11.85 40.2415C12.0822 40.148 12.3343 40.1314 12.5751 40.1937C12.8159 40.2559 13.0348 40.3944 13.205 40.592C13.3751 40.7895 13.489 41.0376 13.5325 41.3056C13.5761 41.5735 13.5474 41.8496 13.4501 42.0999C13.3528 42.3501 13.191 42.5636 12.9848 42.7139C12.7786 42.8641 12.5369 42.9447 12.2896 42.9457C12.1162 42.9482 11.9443 42.9113 11.7845 42.8371C11.6248 42.7629 11.4808 42.653 11.3615 42.5145C11.2422 42.376 11.1503 42.2118 11.0916 42.0323C11.0329 41.8528 11.0085 41.6618 11.0202 41.4714Z" fill="#231F20"/>
<path d="M32.3954 4.06885H18.6046V31.3428H32.3954V4.06885Z" fill="#FF5F00"/>
<path d="M19.481 17.7043C19.4788 15.0777 20.0197 12.4849 21.0626 10.1222C22.1055 7.7596 23.6232 5.68905 25.5007 4.06735C23.1757 2.05607 20.3833 0.80528 17.4429 0.45795C14.5024 0.11062 11.5325 0.680765 8.8726 2.10322C6.21266 3.52567 3.97003 5.74303 2.40104 8.50186C0.832048 11.2607 0 14.4497 0 17.7043C0 20.959 0.832048 24.148 2.40104 26.9068C3.97003 29.6657 6.21266 31.883 8.8726 33.3055C11.5325 34.7279 14.5024 35.2981 17.4429 34.9507C20.3833 34.6034 23.1757 33.3526 25.5007 31.3413C23.6232 29.7196 22.1055 27.6491 21.0626 25.2865C20.0197 22.9238 19.4788 20.331 19.481 17.7043Z" fill="#EB001B"/>
<path d="M51 17.7041C51.0001 20.9587 50.1682 24.1478 48.5993 26.9067C47.0304 29.6655 44.7878 31.8829 42.1279 33.3054C39.468 34.7279 36.4982 35.2981 33.5578 34.9507C30.6173 34.6034 27.8251 33.3526 25.5001 31.3413C27.3759 29.7179 28.8924 27.647 29.9352 25.2847C30.978 22.9224 31.5198 20.3304 31.5198 17.7041C31.5198 15.0778 30.978 12.4858 29.9352 10.1235C28.8924 7.76119 27.3759 5.69027 25.5001 4.06691C27.8251 2.0556 30.6173 0.80479 33.5578 0.45746C36.4982 0.11013 39.468 0.680293 42.1279 2.10278C44.7878 3.52526 47.0304 5.74267 48.5993 8.50154C50.1682 11.2604 51.0001 14.4494 51 17.7041Z" fill="#F79E1B"/>
<path d="M49.4964 28.4561V27.8976H49.7009V27.7838H49.1799V27.8976H49.3846V28.4561H49.4964ZM50.5079 28.4561V27.7827H50.3482L50.1645 28.2459L49.9807 27.7827H49.8209V28.4561H49.9337V27.9482L50.106 28.386H50.2229L50.3952 27.947V28.4561H50.5079Z" fill="#F79E1B"/>
</svg>
