<svg width="88" height="27" viewBox="0 0 88 27" fill="none" xmlns="http://www.w3.org/2000/svg">
<path fill-rule="evenodd" clip-rule="evenodd" d="M8.13764 0.167594C8.92382 0.162418 11.2603 -0.0691757 12.25 3.60685C12.9167 6.08306 13.9786 10.1392 15.4359 15.7753H16.0294C17.5921 9.83333 18.6657 5.77718 19.25 3.60685C20.25 -0.107468 22.75 0.167667 23.75 0.167667L31.4652 0.167677V26.5805H23.6017V11.015H23.0743L18.6908 26.5805H12.7744L8.39089 11.0035H7.86358V26.5805H0V0.167677L8.13764 0.167594ZM42.7572 0.167677V15.7448H43.3845L48.7167 2.93584C49.7518 0.386823 51.9578 0.167677 51.9578 0.167677H59.5674V26.5806H51.5396V11.0035H50.9123L45.6847 23.8124C44.6496 26.3499 42.339 26.5806 42.339 26.5806H34.7294V0.167677H42.7572ZM87.3151 12.7193C86.1953 16.2115 82.6787 18.7126 78.7854 18.7126H70.3666V26.5806H62.7327V12.7193H87.3151Z" fill="#0F754E"/>
<path fill-rule="evenodd" clip-rule="evenodd" d="M79.1536 0.16748H62.3323C62.7327 6.04822 67.3341 11.0825 72.0975 11.0825H87.8456C88.7544 6.19493 85.6259 0.16748 79.1536 0.16748Z" fill="url(#paint0_linear_14_92)"/>
<defs>
<linearGradient id="paint0_linear_14_92" x1="88" y1="7.03351" x2="62.3323" y2="7.03351" gradientUnits="userSpaceOnUse">
<stop stop-color="#1F5CD7"/>
<stop offset="1" stop-color="#02AEFF"/>
</linearGradient>
</defs>
</svg>
