<svg width="131" height="45" viewBox="0 0 131 45" fill="none" xmlns="http://www.w3.org/2000/svg">
<path fill-rule="evenodd" clip-rule="evenodd" d="M63.54 18.7894C63.689 18.5324 63.8413 18.2795 64.0009 18.0267H64.094V23.7251H66.4479V14.0518H64.094L61.4592 18.4629C61.3107 18.7151 61.1622 18.9582 61.0154 19.1933C60.8686 19.4321 60.7196 19.6837 60.5739 19.9463H60.4803V14.0518H58.1274V23.7251H60.4803C60.924 23.0519 61.3567 22.3636 61.7794 21.6581C62.2037 20.9521 62.6314 20.2558 63.0608 19.5698C63.233 19.3079 63.3932 19.0459 63.54 18.7894Z" fill="#1A1919"/>
<path fill-rule="evenodd" clip-rule="evenodd" d="M71.0217 19.7095H74.5236V23.7251H76.8772V14.0513H74.5236V17.7316H71.0217V14.0513H68.6685V23.7251H71.0217V19.7095Z" fill="#1A1919"/>
<path fill-rule="evenodd" clip-rule="evenodd" d="M83.8931 21.5097C83.6593 21.6943 83.3518 21.7869 82.9723 21.7869H81.4527V19.4121H82.9529C83.3463 19.4121 83.6593 19.5127 83.8931 19.7094C84.1252 19.9074 84.2415 20.2047 84.2415 20.6001C84.2415 21.0217 84.1252 21.3251 83.8931 21.5097ZM86.596 20.6214C86.596 19.6296 86.2824 18.8626 85.6603 18.3137C85.0354 17.7679 84.1983 17.4925 83.149 17.4925H81.4527V14.051H79.0983V23.7254H83.2521C84.267 23.7254 85.078 23.4763 85.6847 22.984C86.293 22.4875 86.596 21.7016 86.596 20.6214ZM114.474 21.7869C114.186 21.9319 113.883 22.0172 113.565 22.0434V15.7916C114.337 15.8586 114.931 16.1778 115.349 16.7511C115.765 17.3256 115.975 18.0353 115.975 18.8779C115.975 19.3805 115.907 19.8228 115.77 20.2041C115.637 20.5873 115.459 20.909 115.237 21.1734C115.017 21.4366 114.763 21.6419 114.474 21.7869ZM111.355 22.0245C111.023 21.9965 110.708 21.913 110.413 21.7674C110.116 21.6212 109.855 21.4177 109.633 21.1521C109.412 20.8895 109.235 20.5691 109.106 20.1932C108.976 19.8185 108.911 19.3805 108.911 18.8779C108.911 18.0353 109.124 17.3256 109.551 16.7511C109.977 16.1778 110.579 15.8586 111.355 15.7916V22.0245ZM116.877 22.4576C117.29 22.0245 117.615 21.5042 117.856 20.8962C118.095 20.2888 118.217 19.5967 118.217 18.8175C118.217 18.0932 118.099 17.4334 117.865 16.8406C117.632 16.2466 117.308 15.7367 116.896 15.3072C116.484 14.8789 115.992 14.5427 115.42 14.299C114.848 14.0547 114.229 13.9139 113.565 13.8731V10.2349L111.355 11.1658V13.8731C110.702 13.9139 110.087 14.0614 109.512 14.3185C108.938 14.5768 108.44 14.9198 108.02 15.348C107.601 15.7745 107.271 16.2844 107.03 16.8705C106.789 17.4572 106.669 18.1078 106.669 18.8175C106.669 19.5967 106.78 20.2925 107.003 20.9066C107.224 21.5182 107.543 22.0464 107.957 22.4875C108.37 22.9304 108.864 23.274 109.438 23.5183C110.014 23.7608 110.652 23.9021 111.355 23.9417V28.0405L113.583 27.1096V23.9228C114.234 23.8844 114.845 23.737 115.41 23.4884C115.977 23.238 116.465 22.8932 116.877 22.4576ZM128.555 20.2041C128.42 20.5873 128.242 20.909 128.022 21.1734C127.802 21.4366 127.546 21.6419 127.259 21.7869C126.97 21.9325 126.667 22.0172 126.349 22.0434V15.7916C127.119 15.858 127.715 16.1778 128.132 16.7505C128.549 17.3256 128.756 18.0347 128.756 18.8785C128.756 19.3805 128.691 19.8222 128.555 20.2041ZM124.142 22.0245C123.807 21.9965 123.493 21.9124 123.196 21.7674C122.9 21.6212 122.64 21.4177 122.418 21.1527C122.195 20.8895 122.02 20.5691 121.89 20.1932C121.759 19.8179 121.696 19.3805 121.696 18.8785C121.696 18.0347 121.908 17.3256 122.334 16.7505C122.761 16.1778 123.363 15.858 124.142 15.7916V22.0245ZM130.64 20.8968C130.88 20.2888 131 19.5974 131 18.8175C131 18.0932 130.884 17.4334 130.649 16.8406C130.417 16.2473 130.093 15.7361 129.68 15.3072C129.268 14.8796 128.775 14.5433 128.203 14.299C127.631 14.0547 127.012 13.9139 126.349 13.8737V10.2349L124.142 11.1651V13.8737C123.486 13.9139 122.872 14.0614 122.297 14.3191C121.723 14.5774 121.225 14.9192 120.805 15.348C120.386 15.7751 120.055 16.2844 119.814 16.8705C119.573 17.4578 119.453 18.1072 119.453 18.8175C119.453 19.5974 119.563 20.2925 119.788 20.906C120.009 21.5188 120.327 22.0464 120.741 22.4881C121.154 22.931 121.649 23.274 122.224 23.5183C122.797 23.7601 123.437 23.9021 124.142 23.9417V28.0399L126.367 27.1096V23.9234C127.02 23.8844 127.628 23.737 128.194 23.4884C128.76 23.238 129.249 22.8932 129.661 22.4582C130.074 22.0245 130.401 21.5042 130.64 20.8968Z" fill="#1A1919"/>
<path fill-rule="evenodd" clip-rule="evenodd" d="M48.5909 12.1916H52.0173V23.7358H54.4644V12.1916H57.776V9.93896H48.5909V12.1916Z" fill="#1A1919"/>
<path fill-rule="evenodd" clip-rule="evenodd" d="M96.3893 14.1025H93.7058L90.5525 18.2129V14.0513H88.218V23.7358H90.5525V19.0262L93.6316 23.7358H96.4072L92.9446 18.5533L96.3893 14.1025Z" fill="#1A1919"/>
<path fill-rule="evenodd" clip-rule="evenodd" d="M102.947 20.0759C102.861 20.4335 102.736 20.7454 102.576 21.0165C102.413 21.2864 102.211 21.4978 101.97 21.6488C101.728 21.8005 101.453 21.8767 101.141 21.8767C100.508 21.8767 100.025 21.6141 99.6884 21.0957C99.3533 20.5754 99.1854 19.8395 99.1854 18.8885C99.1854 18.046 99.3483 17.346 99.6696 16.7929C99.9942 16.2385 100.465 15.9607 101.084 15.9607C101.743 15.9607 102.238 16.236 102.575 16.7831C102.911 17.3302 103.077 18.046 103.077 18.93C103.077 19.3375 103.034 19.7195 102.947 20.0759ZM104.238 15.229C103.863 14.7941 103.409 14.4608 102.879 14.2299C102.349 13.999 101.771 13.8833 101.141 13.8833C100.513 13.8833 99.9333 13.999 99.4031 14.2299C98.8718 14.4608 98.4176 14.791 98.0336 15.2187C97.6531 15.6476 97.3567 16.177 97.1467 16.802C96.9379 17.4277 96.8326 18.1368 96.8326 18.93C96.8326 19.6939 96.9345 20.386 97.1378 21.0061C97.34 21.6269 97.6276 22.1533 97.9976 22.5888C98.3683 23.0232 98.8142 23.3601 99.3394 23.5989C99.8624 23.8353 100.45 23.9535 101.104 23.9535C101.732 23.9535 102.312 23.8377 102.843 23.6074C103.373 23.3778 103.828 23.0427 104.211 22.6089C104.593 22.1727 104.893 21.6421 105.106 21.0165C105.324 20.3908 105.432 19.6799 105.432 18.8885C105.432 18.1246 105.326 17.4307 105.116 16.8124C104.908 16.1928 104.615 15.6652 104.238 15.229ZM57.302 35.638C57.302 35.0818 57.1464 34.6474 56.8356 34.3355C56.5242 34.0236 56.0927 33.8676 55.5404 33.8676H52.977V37.3949H55.5404C56.1015 37.3949 56.5348 37.2463 56.8417 36.9484C57.1486 36.6511 57.302 36.2143 57.302 35.638ZM55.4877 32.913C56.3558 32.913 57.0367 33.1396 57.5319 33.5929C58.0272 34.0461 58.2748 34.7303 58.2748 35.6453C58.2748 36.5323 58.0339 37.2116 57.5519 37.6837C57.0699 38.1558 56.3952 38.3922 55.527 38.3922H52.017V28.9812H57.4732V29.9785H52.977V32.913H55.4877ZM63.4148 35.3706C63.1527 35.2073 62.8907 35.0769 62.6287 34.9807C62.3672 34.8844 62.0525 34.8363 61.6863 34.8363C61.2675 34.8363 60.9141 34.9587 60.626 35.2048C60.3379 35.4504 60.1939 35.8043 60.1939 36.2673C60.1939 36.7297 60.3157 37.0818 60.5601 37.3224C60.8049 37.5637 61.1578 37.6837 61.621 37.6837C61.9611 37.6648 62.2863 37.5637 62.5965 37.3803C62.9062 37.1976 63.1788 36.9752 63.4148 36.7151V35.3706ZM62.0342 31.2072C62.7788 31.2072 63.3505 31.3979 63.7499 31.7781C64.1483 32.1594 64.3477 32.7303 64.3477 33.4918V38.3922H63.4148V37.6983H63.3882C63.0464 38.0358 62.7068 38.2576 62.3694 38.3636C62.032 38.469 61.7101 38.522 61.4032 38.522C61.149 38.522 60.8947 38.4812 60.6409 38.4001C60.3867 38.3179 60.1562 38.1881 59.9507 38.0102C59.7446 37.833 59.5778 37.6051 59.451 37.3261C59.3241 37.0477 59.2604 36.7065 59.2604 36.3032C59.2604 35.9572 59.3197 35.6453 59.4377 35.3669C59.5562 35.0879 59.7224 34.8503 59.9374 34.6535C60.1523 34.4561 60.4066 34.3051 60.6997 34.1997C60.9933 34.0937 61.3157 34.0407 61.6658 34.0407C61.9467 34.0407 62.2292 34.0717 62.514 34.1333C62.7987 34.1948 63.099 34.3203 63.4148 34.5091V33.6349C63.4148 33.0903 63.2901 32.6943 63.0414 32.447C62.7926 32.199 62.4198 32.0748 61.9218 32.0748C61.6077 32.0748 61.3157 32.1186 61.0448 32.2051C60.7744 32.2916 60.5036 32.4074 60.2332 32.5518L59.918 31.7476C60.2243 31.5868 60.549 31.4564 60.8908 31.3571C61.2326 31.2578 61.6137 31.2072 62.0342 31.2072Z" fill="#1A1919"/>
<path fill-rule="evenodd" clip-rule="evenodd" d="M70.0927 38.3926V35.1399H66.7269V38.3926H65.7942V31.3228H66.7269V34.2429H70.0927V31.3228H71.0259V38.3926H70.0927Z" fill="#1A1919"/>
<path fill-rule="evenodd" clip-rule="evenodd" d="M77.2041 31.3521L74.2991 34.6048L77.2834 38.3926H76.1659L73.3787 34.7927V38.3926H72.4456V31.3521H73.3787V34.4743L76.1395 31.3521H77.2041Z" fill="#1A1919"/>
<path fill-rule="evenodd" clip-rule="evenodd" d="M10.5995 34.9921L10.1009 35.9224C9.92305 35.3095 9.60062 34.6735 9.39287 34.2239C8.994 35.1292 8.3619 35.1474 7.75361 35.1523C7.88823 32.9829 5.41134 30.8014 6.49993 28.3268C6.7171 27.8315 6.57638 27.2259 6.10715 26.9664C4.44518 26.038 5.21467 29.8894 3.5538 30.0051C3.8718 29.5683 3.99201 28.6539 4.03966 28.5747C3.68621 28.6758 2.83971 29.2668 2.45967 28.5095C3.43026 27.9283 3.70948 27.0541 3.86182 26.1763C4.05517 25.0657 4.14381 24.5515 4.34047 24.0946C4.5449 23.6066 4.87286 23.1838 5.57421 22.1835C5.40801 22.2116 3.53829 22.6441 3.11948 22.4284C6.35091 20.2463 5.62241 17.4707 10.5518 14.9967C9.25992 13.9416 7.93754 13.1003 8.88542 11.0832C10.2355 12.8669 12.801 12.2498 14.1871 11.4207C12.8177 11.1191 11.0537 9.79348 10.6338 8.31676C11.1507 8.22904 11.8188 8.84434 12.2038 9.13127C12.3889 8.58664 12.4625 7.95246 13.0631 7.81478C12.2626 9.70149 13.8453 10.6823 15.3549 10.6902C15.5882 10.6902 16.5648 10.5836 16.5648 10.5836C16.4097 10.2303 15.7782 9.26652 16.2374 8.87602C16.6064 9.25738 17.0463 9.56137 17.4479 9.89948C20.383 12.3972 16.0524 14.7134 14.2807 15.7643C11.5003 17.4165 12.2443 19.3812 13.406 19.8838C13.401 20.1074 13.2764 20.2054 13.0836 20.2743C12.2714 20.5728 11.5086 19.9356 10.861 19.5268C10.9003 20.7598 10.8238 21.9447 12.0626 22.6234L11.2083 22.967C11.9429 23.5798 12.1662 23.9051 13.0509 24.0319C12.6376 24.2518 12.1252 24.2481 11.6864 24.2932C11.7972 24.635 11.8886 25.0968 12.1207 25.4032C10.3103 25.6389 9.58622 24.5028 9.02669 24.5497C7.83284 24.6472 7.90707 27.1187 10.8454 27.1224L10.5407 27.6749C10.5407 27.6749 11.0981 28.0325 11.6072 28.1014C11.4122 28.275 11.2233 28.5095 11.0593 28.6886L11.5285 29.1327C10.3297 29.3697 9.98952 27.9667 9.21172 28.6436C8.02562 29.6774 10.6416 31.8602 13.15 31.5342C12.939 31.8309 12.3506 32.2671 12.0952 32.4944C14.14 34.618 13.1312 36.6168 13.9722 38.0814C12.2105 37.9528 10.9047 36.5303 10.5995 34.9921ZM12.8974 32.604C13.4647 32.1081 13.9334 31.8608 13.9112 30.6649C13.0597 31.1425 10.6432 31.1175 9.63386 29.589C9.34856 29.1553 9.65325 28.9366 9.92969 29.2783C10.62 30.1398 11.8997 29.7493 12.3667 29.5001C12.293 29.2052 12.0853 28.819 11.9108 28.6539C12.0853 28.4638 12.5789 28.1836 12.6814 27.6987C12.416 27.5409 11.3911 27.4282 11.3911 27.4282C11.5562 27.2552 11.7612 27.0109 11.6388 26.3657C10.5917 26.7197 9.29814 26.2396 9.00397 25.8126C8.71479 25.394 9.01062 25.0011 9.25216 25.2771C9.77402 25.8808 12.3462 26.571 13.3035 25.5226C12.9478 25.4154 12.5562 25.0657 12.4847 24.85C13.37 24.7526 14.0769 24.1775 14.1345 23.461C13.6448 23.461 12.7196 23.422 12.4055 23.1613C12.8304 22.9889 13.0974 22.8195 13.2315 22.2975C11.6122 22.1896 11.4842 20.867 11.4759 20.6477C12.5296 21.3166 14.386 21.0206 13.9062 19.3726C13.0309 19.3215 12.1457 17.7601 14.5583 16.3242C16.7504 15.0205 19.2451 13.6132 19.0257 11.2958C18.8816 9.8148 16.6612 8.8023 16.3798 8.05176C15.4535 8.53669 15.2657 9.0996 15.684 10.0426C15.684 10.0426 13.6209 10.2687 13.4581 8.87175C13.3866 8.24488 13.7672 7.65821 14.1755 7.21106C13.9445 7.21106 12.3889 6.75354 11.9202 8.14679C11.0471 7.4925 10.3025 7.51626 9.71474 8.2065C10.6521 8.81936 11.2327 10.9169 12.7822 11.5364C11.6798 12.1944 9.89756 11.9178 8.85717 9.89948C7.87328 11.5303 7.3071 13.1447 9.4167 14.8682C5.57587 16.7914 5.60357 20.4643 2.263 22.2152C2.6026 23.2155 3.31725 23.2155 4.2269 23.0596C2.78209 25.1242 4.01306 27.2832 1.72729 28.1665C1.94058 29.0079 2.36992 29.6786 3.21421 29.4331C2.97378 29.8449 2.81589 29.8358 2.4425 30.2884C3.6923 31.1541 5.17478 30.5266 5.5105 27.7505C5.57089 27.2552 6.19191 27.5646 5.97641 28.0508C4.55154 31.2912 8.1547 33.728 6.87997 36.1051C8.00513 36.0533 8.85994 35.9577 9.33027 35.5392C9.55907 36.0381 9.69591 36.5322 9.64716 37.0189C10.2676 36.8806 10.4942 36.4749 10.5369 36.0143C10.9441 37.3174 12.3983 38.7119 14.7267 38.7119C13.4919 36.7789 14.6414 34.8154 12.8974 32.604Z" fill="#D0D5D6"/>
<path fill-rule="evenodd" clip-rule="evenodd" d="M7.37529 27.2434C7.7991 27.7301 8.31431 27.7801 9.29044 27.7119C8.21791 27.5699 7.61628 27.283 7.24289 26.5001C7.18694 26.0968 7.15093 25.6649 7.13486 25.2025C7.10217 23.9622 7.47335 22.4842 8.25337 20.8668C8.24783 21.8817 8.9802 23.4773 10.6117 23.7429C9.14363 23.0374 8.28218 21.4486 8.75141 19.9122C9.05721 19.3742 9.40234 18.8199 9.78737 18.257C9.98127 17.9846 10.1691 17.7227 10.3535 17.4784C10.1558 18.263 11.0189 19.0733 11.5961 19.2085C11.2826 18.8729 10.6117 17.7818 12.1618 15.9584C11.7286 16.1826 11.2505 16.5012 10.8881 16.8137C13.7057 13.4655 16.0203 13.3723 17.0845 11.6885C15.5433 12.8466 11.4643 13.4716 9.6317 12.9246C10.6433 13.6684 13.0814 13.6002 13.6769 13.4619C11.6887 15.5874 7.34815 17.7818 6.59694 19.7355C7.65506 18.4598 8.33813 18.2259 9.25332 17.8969C8.53258 19.08 7.8833 20.1211 7.43568 21.328C6.28116 24.0859 4.73663 24.1206 4.63525 26.396C5.1621 24.6329 6.23075 24.1864 6.97199 23.0283C6.84069 23.7678 6.78031 24.5866 6.80357 25.5339C6.82961 26.5629 7.01686 27.467 7.31435 28.2754C7.23901 29.4006 7.33042 31.3208 8.50266 32.5886C7.70603 31.4792 7.53484 29.6772 7.60575 28.9741C8.52316 30.9218 11.1408 33.6108 12.4055 35.4189C11.1408 33.0942 8.03953 30.3778 7.37529 27.2434ZM36.3385 17.8969C37.2504 18.2271 37.9373 18.4598 38.9938 19.7355C38.2437 17.7818 33.8998 15.5868 31.9115 13.4613C32.5099 13.5996 34.9469 13.6684 35.9584 12.9246C34.1275 13.4716 30.0468 12.8466 28.5051 11.6885C29.5704 13.3723 31.8838 13.4661 34.702 16.8137C34.3408 16.5012 33.8616 16.1826 33.4278 15.9584C34.9768 17.7818 34.3076 18.871 33.9934 19.2085C34.5713 19.0733 35.4333 18.2643 35.2366 17.4784C35.4216 17.7227 35.6111 17.9846 35.8028 18.257C36.1906 18.8199 36.5329 19.3742 36.8382 19.9122C37.308 21.4486 36.4437 23.0374 34.9801 23.7429C36.6116 23.4779 37.344 21.8817 37.3357 20.8668C38.1157 22.4842 38.4896 23.9622 38.4542 25.2025C38.4403 25.6649 38.4021 26.0968 38.3478 26.5001C37.9728 27.283 37.3711 27.5705 36.3025 27.7119C37.2764 27.7801 37.7883 27.7301 38.2171 27.2434C37.5506 30.3778 34.4499 33.093 33.1846 35.4189C34.4499 33.6108 37.0642 30.9218 37.9844 28.9741C38.0559 29.6772 37.8841 31.4792 37.0897 32.5886C38.2597 31.3208 38.3511 29.4006 38.2763 28.2748C38.5727 27.4657 38.7578 26.5629 38.786 25.5339C38.8137 24.5866 38.7489 23.7678 38.6182 23.0283C39.3594 24.1864 40.428 24.6329 40.9554 26.396C40.8552 24.1206 39.3106 24.0859 38.1539 21.328C37.708 20.1211 37.0603 19.08 36.3385 17.8969Z" fill="#D0D5D6"/>
<path fill-rule="evenodd" clip-rule="evenodd" d="M41.5554 28.5747C41.5997 28.6539 41.7172 29.5683 42.0357 30.0057C40.3737 29.8893 41.1454 26.0379 39.4829 26.9664C39.0137 27.2259 38.8735 27.8314 39.0918 28.3267C40.1793 30.8013 37.7013 32.9829 37.8403 35.1523C37.2282 35.1474 36.5922 35.1292 36.1955 34.2239C35.9906 34.6735 35.6654 35.3095 35.4892 35.9223L34.9917 34.9921C34.6837 36.5303 33.3785 37.9534 31.6185 38.0814C32.4544 36.6168 31.4506 34.618 33.4948 32.4943C33.2389 32.2689 32.6522 31.8309 32.44 31.5342C34.9502 31.8601 37.5661 29.6773 36.3772 28.6435C35.6011 27.9667 35.2587 29.3697 34.0627 29.1327L34.5313 28.6886C34.3679 28.5083 34.1762 28.2755 33.9829 28.1013C34.4937 28.0325 35.0493 27.6749 35.0493 27.6749L34.7446 27.1223C37.6841 27.1187 37.7539 24.6471 36.565 24.5496C36.0061 24.5027 35.2787 25.6401 33.4699 25.4037C33.6987 25.0967 33.7923 24.6337 33.9048 24.2931C33.4693 24.2481 32.9514 24.2517 32.5403 24.0318C33.425 23.9045 33.6472 23.5798 34.3818 22.9669L33.5303 22.6233C34.7668 21.9446 34.6909 20.7591 34.728 19.5267C34.0832 19.9367 33.317 20.5727 32.5082 20.2742C32.3154 20.2053 32.1896 20.1073 32.1846 19.8837C33.3464 19.3811 34.0865 17.4164 31.3099 15.7642C29.5393 14.7133 25.2066 12.3971 28.1427 9.89874C28.5438 9.56124 28.9815 9.25725 29.351 8.87588C29.8113 9.26639 29.182 10.2302 29.0241 10.5835C29.0241 10.5835 30.0002 10.6913 30.2318 10.6913C31.7453 10.6822 33.3308 9.70014 32.5287 7.81464C33.1292 7.95232 33.2001 8.58651 33.3835 9.13114C33.7696 8.8442 34.4388 8.2289 34.9568 8.31663C34.5363 9.79335 32.7746 11.119 31.4041 11.4205C32.7879 12.2497 35.3546 12.8668 36.7041 11.083C37.652 13.1001 36.3318 13.9415 35.0377 14.9978C39.9666 17.4706 39.2397 20.2449 42.4723 22.4284C42.0545 22.644 40.1804 22.2103 40.0136 22.1835C40.7189 23.1838 41.0474 23.6066 41.2518 24.0945C41.4474 24.5515 41.5338 25.0644 41.7271 26.1762C41.8817 27.0541 42.1609 27.9283 43.1298 28.5083C42.7504 29.2667 41.9044 28.6758 41.5554 28.5747ZM41.3632 23.0595C42.2723 23.2148 42.9875 23.2148 43.3271 22.2139C39.9859 20.4643 40.0136 16.7913 36.1723 14.8681C38.2835 13.1446 37.7146 11.5302 36.7346 9.89874C35.6953 11.9177 33.907 12.1942 32.8101 11.5363C34.3568 10.9167 34.9396 8.81922 35.8759 8.20636C35.2903 7.51612 34.5408 7.49237 33.671 8.14666C33.1979 6.75218 31.6467 7.21092 31.4135 7.21092C31.8196 7.65747 32.2046 8.24474 32.132 8.87162C31.9714 10.2685 29.9072 10.0431 29.9072 10.0431C30.3227 9.09946 30.1382 8.53655 29.2119 8.05162C28.9277 8.80277 26.7101 9.81467 26.5677 11.2951C26.3456 13.6131 28.8407 15.0204 31.0329 16.3241C33.4455 17.76 32.5597 19.3214 31.686 19.3726C31.2013 21.0205 33.0594 21.3165 34.1142 20.6476C34.1092 20.8669 33.9762 22.1895 32.3569 22.2974C32.4932 22.8195 32.7597 22.9888 33.1851 23.1624C32.8677 23.422 31.9453 23.461 31.455 23.461C31.5143 24.1774 32.2206 24.7513 33.1065 24.8481C33.0356 25.0644 32.6428 25.4153 32.2877 25.5225C33.2444 26.571 35.8149 25.8807 36.3385 25.277C36.5778 25.001 36.872 25.394 36.5872 25.8119C36.2908 26.2396 34.9984 26.7196 33.9513 26.3657C33.8311 27.0108 34.0339 27.2551 34.1973 27.4281C34.1973 27.4281 33.173 27.5408 32.9082 27.6986C33.0073 28.1836 33.5054 28.4638 33.6788 28.6539C33.5054 28.819 33.2982 29.2052 33.2239 29.5001C33.6932 29.7492 34.9734 30.1391 35.6587 29.2783C35.9385 28.9365 36.2421 29.1546 35.9584 29.589C34.9468 31.1175 32.532 31.1419 31.6788 30.6649C31.655 31.8607 32.1248 32.1081 32.6926 32.6046C30.9481 34.8154 32.0999 36.7789 30.865 38.7119C33.1901 38.7119 34.646 37.3174 35.0543 36.0143C35.0992 36.4749 35.3224 36.8806 35.9429 37.0189C35.8953 36.5322 36.0332 36.0381 36.2581 35.5391C36.7301 35.9577 37.5883 36.0533 38.709 36.1051C37.4365 33.728 41.0402 31.2911 39.612 28.0507C39.3998 27.5634 40.0203 27.2551 40.0801 27.7504C40.4142 30.5266 41.8983 31.1541 43.1492 30.2884C42.772 29.8357 42.6174 29.8449 42.3775 29.433C43.219 29.6786 43.6484 29.0078 43.865 28.1665C41.5781 27.2831 42.8085 25.1235 41.3632 23.0595ZM18.1022 33.1693L18.7891 32.5961C18.911 32.4937 18.9891 32.4291 19.1298 32.4492L20.0977 32.5887C20.1503 32.8446 20.3048 33.0944 20.3048 33.0944L19.2755 32.8556C19.1298 32.8367 19.0872 32.8446 18.9498 32.9524L18.4628 33.3576C18.3664 33.4416 18.3637 33.572 18.418 33.7018L18.4972 33.8888L18.1559 34.1721L18.0263 33.9022C17.8939 33.614 17.885 33.3521 18.1022 33.1693ZM19.675 31.1687L19.4955 31.2729C19.3725 31.3514 19.3093 31.3868 19.2024 31.2387L19.1243 31.1315C19.0866 31.081 19.0733 30.9536 19.1531 30.8586L19.9193 29.8747L19.2124 29.2375L20.1126 29.6024L20.4417 29.151C20.5381 29.2424 20.5043 29.5031 20.5043 29.5031C20.8688 29.5031 21.9275 30.0812 21.9679 31.5306C21.9679 31.5306 22.2067 31.9198 22.512 31.9405L24.0714 32.0435C24.329 32.0435 24.9755 31.5025 25.8065 32.0149C26.0165 31.8748 26.2414 31.7639 26.4724 31.7359C27.2037 31.6761 27.7427 32.2372 28.1444 32.8014C28.4374 33.2101 28.8391 33.8364 28.8391 33.8364C28.6668 34.0618 28.4956 34.138 28.3532 34.0807C28.1361 33.9601 28.0668 33.7676 27.9987 33.5026C27.8895 33.0816 27.468 32.7216 27.468 32.7216C27.6103 33.0048 27.6408 33.3253 27.7089 33.6189C27.1001 32.9567 26.9843 32.1452 26.5589 32.035C26.3694 31.9832 26.1517 32.0709 25.9467 32.3317C26.1622 32.8787 26.1517 33.5154 26.3711 33.9394C26.5384 34.258 26.5727 34.286 26.6486 34.3561C26.8286 34.498 26.7256 34.7521 26.6985 34.9385L26.4674 36.5309H26.0791L26.335 34.972C26.4132 34.498 25.201 34.498 24.5806 33.5927C24.0515 34.2714 22.5685 34.1014 21.9275 33.9954C21.6688 33.954 21.4167 33.971 21.2738 34.2519C21.1912 34.4103 21.0505 34.3628 20.9658 34.3396L19.7963 34.0618C19.5908 34.0094 19.5021 34.0545 19.4107 34.2616L19.1758 34.7947C19.1243 34.9196 19.1265 35.0097 19.2196 35.1097L19.3315 35.2406C19.265 35.4977 19.0534 35.6915 19.0534 35.6915L18.7974 35.3759C18.6739 35.2163 18.6678 34.9835 18.7664 34.7575L19.1448 33.89C19.1891 33.795 19.2689 33.6896 19.4295 33.6896L20.8771 33.6634L20.4334 32.8702C20.1026 32.2738 20.6505 31.2132 20.5691 30.7118C20.5281 31.3843 19.7896 31.0767 19.675 31.1687ZM25.698 34.838L25.0736 36.5309H24.6853L25.3091 34.8916C25.3739 34.6808 25.2514 34.5809 25.0958 34.3488C25.3268 34.4931 25.493 34.5857 25.7744 34.7057C25.7489 34.752 25.7201 34.7795 25.698 34.838ZM18.0817 34.646L18.7841 33.9911L18.6772 33.7548C18.6008 33.5885 18.6418 33.5757 18.7238 33.5105L19.0927 33.2065C19.1791 33.1285 19.2689 33.1376 19.3758 33.1657L20.4888 33.4538H19.3143C19.0412 33.4733 18.962 33.5885 18.8656 33.8084L18.7841 33.9911L18.4817 34.6735C18.3786 34.9086 18.326 35.2211 18.5952 35.5763L18.8091 35.8541L18.3764 36.8191H18.7415L19.0401 36.1484C19.0639 36.1246 19.5071 35.6823 19.5996 35.2211C19.4733 35.1084 19.3819 35.028 19.4523 34.8672L19.5885 34.5486C19.6318 34.442 19.6478 34.3981 19.7769 34.4273L20.9469 34.7057C21.0926 34.7484 21.3065 34.8191 21.4621 34.5614C21.6233 34.2915 21.6444 34.3213 22.0156 34.3628L22.6122 34.4316C23.4277 34.5169 24.2415 34.2915 24.5589 34.0155C24.6697 34.2945 24.8902 34.5078 24.9938 34.724C25.0315 34.8038 24.9689 34.9178 24.9179 35.0591L24.2482 36.8191H25.2808L25.8658 35.2108C25.9201 35.0591 25.9982 34.936 26.0603 34.8763L25.7245 36.8191H26.7256L26.9926 34.894C27.0508 34.4688 27.0165 34.3293 26.8303 34.155C26.4115 33.7676 26.4215 32.9524 26.2863 32.4572C26.3578 32.4127 26.4392 32.3895 26.5384 32.4023C26.7572 32.4267 26.9206 33.039 27.1782 33.4325C27.6901 34.2257 28.3931 35.1011 29.1953 33.8681C29.1172 33.728 29.0313 33.5982 28.9355 33.477L28.7117 33.1894C28.5815 33.0292 27.9593 32.2482 27.7017 31.9661C27.1128 31.3161 26.2098 31.4142 25.8503 31.7298C25.0348 31.2613 24.175 31.7541 23.9717 31.7359L22.5679 31.6426C22.5047 31.6384 22.4067 31.614 22.3391 31.4946L22.5989 31.4002C22.3546 30.2829 21.7408 29.3465 20.6688 29.1869C20.6688 29.1869 20.6062 28.8336 20.4433 28.7653L20.1231 29.1808C20.0328 29.1942 19.9337 29.2241 19.8533 29.2631L18.485 28.7038L19.5126 29.8449C19.5126 29.8449 18.9791 30.6746 18.8279 30.844C18.7276 30.9987 18.7376 31.1206 18.8495 31.2698L19.0495 31.558C19.1531 31.7054 19.265 31.7011 19.4295 31.6073L19.655 31.4794C19.7514 31.3886 20.0827 31.5671 20.2229 31.4252C20.132 31.7499 20.0888 32.0618 20.0666 32.3109L19.1448 32.1885C18.9426 32.1599 18.8517 32.1885 18.7276 32.2945L17.9415 32.9604C17.6845 33.1779 17.6041 33.5525 17.7642 33.9162L18.0817 34.646ZM21.0832 12.7438C21.4588 13.0289 22.1225 13.3335 22.1225 13.3335V12.8473L20.6611 12.232C20.6611 12.232 20.6611 12.4288 21.0832 12.7438ZM22.1225 12.1571V11.6758L20.4638 11.0233C20.4638 11.0233 20.6611 11.2548 21.0832 11.5729C21.4588 11.8567 22.1225 12.1571 22.1225 12.1571ZM22.1225 11.0593V10.5719L20.3065 9.83721C20.3065 9.83721 20.6611 10.154 21.0832 10.4696C21.4588 10.7547 22.1225 11.0593 22.1225 11.0593Z" fill="#D0D5D6"/>
<path fill-rule="evenodd" clip-rule="evenodd" d="M27.2237 17.6758H29.0818C29.0037 17.3803 28.7145 17.0812 28.1732 17.0812C27.6597 17.0812 27.3528 17.4065 27.2237 17.6758ZM25.2808 9.8374L23.4682 10.5721V11.0594C23.4682 11.0594 24.1329 10.7554 24.5058 10.4697C24.9285 10.1542 25.2808 9.8374 25.2808 9.8374ZM24.9285 12.2321L23.4682 12.8474V13.3335C23.4682 13.3335 24.1313 13.0289 24.5063 12.7438C24.9285 12.4289 24.9285 12.2321 24.9285 12.2321ZM25.1252 11.0235L23.4682 11.6759V12.1572C23.4682 12.1572 24.133 11.8568 24.5063 11.573C24.9285 11.255 25.1252 11.0235 25.1252 11.0235ZM17.4119 17.0812C16.8712 17.0812 16.5814 17.3803 16.5061 17.6758H18.3636C18.2324 17.4065 17.9277 17.0812 17.4119 17.0812Z" fill="#D0D5D6"/>
<path fill-rule="evenodd" clip-rule="evenodd" d="M22.7951 9.596L19.8124 8.3002C20.065 7.64042 21.235 7.07812 22.7951 7.07812C24.3551 7.07812 25.5235 7.64042 25.7761 8.3002L22.7951 9.596ZM25.016 13.6455L23.0039 14.8078V10.1108L25.7362 9.08974L25.016 13.6455ZM27.3666 15.6041C26.6121 15.7485 25.9655 16.7634 25.4337 17.6754L25.3739 17.7814H24.8077L24.8072 17.8892C24.7468 18.5941 24.1391 19.5524 22.794 19.5524C22.1729 19.5524 21.7054 19.3434 21.3841 19.0583C21.1043 18.8092 20.9304 18.5009 20.845 18.2079C20.8129 18.0988 20.793 17.9934 20.7841 17.8892L20.7797 17.7814H20.2168L20.1559 17.6754C19.6218 16.7634 18.9748 15.7485 18.2241 15.6041L20.2755 14.2955L22.7951 15.8015L25.3124 14.2955L27.3666 15.6041ZM30.1332 19.0583C29.9183 19.6755 29.7443 20.3426 29.7443 21.0103V28.1868H28.9853C28.6413 27.8201 28.3499 26.5949 28.3499 26.5949C28.1616 27.0378 28.3771 27.9279 28.5798 28.1868H27.602C27.3605 27.8274 27.1505 26.5523 27.1505 26.5523C26.8586 26.919 27.0436 27.9115 27.2248 28.1868H26.576C26.5339 27.6775 26.6663 27.1219 26.6663 27.1219C26.3284 27.0531 25.9661 26.8557 25.9678 26.4396C26.1389 26.6175 26.2082 26.615 26.447 26.6102L26.7234 26.3707C25.8066 26.4024 25.7656 25.2985 26.4896 24.7807C25.7656 24.8063 25.2227 24.3329 25.488 23.4843C24.9706 23.1906 24.7889 22.2305 25.1706 21.8089C24.8941 21.4787 24.8482 20.8336 25.0249 20.3913C24.6598 20.3913 24.2482 20.2299 24.0188 19.9557C24.0011 19.9648 23.9806 19.9716 23.9612 19.9783C24.4183 19.7729 24.8044 19.4549 25.067 19.0583H30.1332ZM29.746 33.314C29.746 34.8114 29.1172 35.947 28.0718 36.5788L28.4474 35.7399H28.0846L27.6037 36.8133C27.1062 37.021 26.54 37.1344 25.9146 37.1344C24.0055 37.1344 23.5009 37.2203 22.7967 37.994C22.0876 37.2203 21.5841 37.1344 19.6789 37.1344C19.0568 37.1344 18.4939 37.0223 17.9959 36.8188H18.0103L18.4906 35.7399H18.1277L17.7056 36.6829C17.6053 36.6305 17.5084 36.5745 17.4125 36.513L17.761 35.7399H17.4015L17.1427 36.3162C16.3251 35.6534 15.8442 34.6207 15.8442 33.314V28.6084H29.746V33.314ZM20.2827 24.7204L20.8694 24.7996C20.9132 25.1535 20.829 25.7524 20.6196 26.0856L20.0523 25.9047C20.203 25.5081 20.2417 25.142 20.2827 24.7204ZM19.4396 24.2476C19.4396 24.2476 19.9769 24.219 20.1287 24.2824C20.2417 24.3335 20.1653 24.5401 20.0213 24.5181C19.8684 24.4974 19.4396 24.2476 19.4396 24.2476ZM19.403 21.8985L18.921 23.8376L19.0856 20.7117L19.8346 20.0075L20.2152 20.9268L19.2529 23.9619L19.5061 21.9186C19.531 21.7754 19.4246 21.7602 19.403 21.8985ZM19.0324 25.1292C18.7787 25.2425 18.5205 25.0902 18.6003 24.9092C18.7172 25.028 19.0451 24.9702 19.0451 24.9702L19.0324 25.1292ZM18.5571 25.3881C18.6734 25.513 19.0274 25.4661 19.0274 25.4661L19.0413 25.5428C18.8867 25.7688 18.4585 25.6677 18.5571 25.3881ZM18.002 24.141C17.8668 24.0417 17.9277 23.8254 18.0779 23.8254C18.2413 23.8297 18.4601 24.0344 18.6773 24.1368C18.6773 24.1368 18.1106 24.2196 18.002 24.141ZM18.5393 25.8578C18.5393 25.8578 18.7022 25.9346 18.9072 25.9516C18.8834 26.0747 18.7975 26.1953 18.6579 26.1606C18.5427 26.1325 18.4906 25.9742 18.5393 25.8578ZM18.9205 24.6875C18.6479 24.7844 18.5277 24.5693 18.541 24.3853C19.0734 24.1697 19.3105 24.3086 19.4673 24.4188C19.6113 24.5181 19.7293 24.7996 19.9232 24.9775C19.8905 25.2169 19.8229 25.5654 19.7448 25.7987C19.1997 25.644 19.1714 25.1164 19.3759 24.7935C19.2606 24.6467 19.1399 24.6095 18.9205 24.6875ZM21.2844 24.8593L21.8683 24.9354C21.9253 25.29 21.8167 26.0375 21.5962 26.3957L21.0013 26.2069C21.2389 25.8633 21.3265 25.2528 21.2844 24.8593ZM22.2882 24.9945L22.7701 25.0615C22.846 25.5002 22.7967 26.2611 22.5414 26.6955L21.9802 26.5151C22.2267 26.149 22.3408 25.3936 22.2882 24.9945ZM23.1513 25.1121H23.1618C23.287 25.1328 23.4189 25.1103 23.5391 25.0548C23.7989 25.4661 24.0022 26.3957 23.6903 26.9781C23.5136 26.9794 23.3396 26.9465 23.1779 26.8965L23.0482 26.8539C23.3119 26.4024 23.2721 25.6098 23.1513 25.1121ZM23.887 24.7996L24.2277 24.4322C24.5773 24.7655 25.0332 25.513 24.8903 26.2215L24.518 26.5949C24.4426 26.6772 24.3618 26.7387 24.282 26.7929C24.513 26.1587 24.2172 25.1864 23.887 24.7996ZM25.8913 25.0104C25.8165 25.1194 25.755 25.2486 25.7163 25.3869L25.3013 25.8072C25.3844 25.1389 24.9772 24.3494 24.6044 24.0277L25.047 23.5519L25.1335 23.6488C24.9861 24.0752 25.2742 24.9092 25.8913 25.0104ZM24.7889 21.7809C24.5706 22.239 24.5928 22.7672 24.8487 23.2461L24.6786 23.4301C23.9346 23.3295 23.641 22.1087 23.641 22.1087C23.6272 22.2153 23.6172 22.3268 23.6189 22.4334C23.1851 22.2567 22.9092 21.8333 22.9319 21.2515C23.0964 21.3533 23.2815 21.4239 23.4781 21.4623L23.528 21.1041C23.0084 21.0048 22.7048 20.6472 22.5879 20.2256C22.5646 20.2219 22.5414 20.2177 22.5186 20.2128C22.61 20.2219 22.702 20.2299 22.7967 20.2299C23.1042 20.2299 23.3973 20.1775 23.672 20.0891C23.8875 20.4272 24.2715 20.6691 24.6565 20.7166C24.5955 20.995 24.6249 21.3465 24.7889 21.7809ZM20.5221 19.0583C20.881 19.5987 21.4638 19.9984 22.153 20.1561C22.2123 20.4413 22.3513 20.752 22.6261 21.0048C22.5125 21.8437 22.8405 22.6271 23.6615 22.8361C23.7468 23.2625 23.9889 23.586 24.3928 23.7402L23.8222 24.4651C23.605 24.7435 23.3203 24.8331 23.0837 24.7996L20.5337 24.481C20.6434 24.169 20.3503 23.8078 19.5437 23.9625L20.5459 20.8823L19.9337 19.4513L18.7753 20.5387L18.69 23.7718L18.1986 23.505C17.5494 23.1992 17.361 24.4846 17.9765 24.4901L18.2202 24.4931C18.2053 24.6272 18.2413 24.7709 18.336 24.816C18.2202 24.8703 18.1865 25.1103 18.3316 25.1944C18.1831 25.2711 18.1654 25.5148 18.2834 25.6214C18.1543 25.8578 18.1349 26.3744 18.582 26.5036C18.946 26.6102 19.1759 26.1758 19.2529 25.9248L23.2189 27.2754C23.7817 27.4527 24.1806 27.3546 24.6471 26.9038L25.6825 25.9084C25.5534 26.559 25.7656 27.1463 26.216 27.34C26.216 27.34 26.1506 27.9224 26.1722 28.1868H15.8442V21.0103C15.8442 20.3426 15.6691 19.6755 15.4592 19.0583H20.5221ZM19.8523 9.08974L22.5818 10.1108V14.8078L20.5719 13.6455L19.8523 9.08974ZM26.4841 8.53109C26.4841 7.3815 24.729 6.35254 22.794 6.35254C20.8572 6.35254 19.1022 7.3815 19.1022 8.53109L19.1432 8.81011L19.9132 13.6893L16.2547 16.0348C15.8647 16.2864 15.3772 16.9797 15.3151 17.6754H15.9827C16.0929 16.9803 16.5937 16.2078 17.5289 16.2541C18.3737 16.3047 18.8723 16.87 19.3698 17.6754L19.4977 17.8892L19.6822 18.2079H14.3008C14.6947 19.0797 15.0725 20.0057 15.0725 21.0103V33.314C15.0725 36.4795 17.2846 37.986 19.6789 37.986C21.527 37.986 21.7763 37.8947 22.7967 39.0156C23.8139 37.8947 24.0615 37.986 25.9146 37.986C28.3084 37.986 30.5199 36.4795 30.5199 33.314V21.0103C30.5199 20.0057 30.8938 19.0797 31.2888 18.2079H25.9046L26.0913 17.8892L26.2198 17.6754C26.7134 16.87 27.2148 16.3047 28.0596 16.2541C28.9903 16.2078 29.4939 16.9803 29.6036 17.6754H30.2706C30.2108 16.9797 29.7205 16.2864 29.3327 16.0348L25.6742 13.6893L26.4459 8.81011L26.4841 8.53109Z" fill="#D0D5D6"/>
<path fill-rule="evenodd" clip-rule="evenodd" d="M29.4296 23.6976L29.4341 23.3375C28.4314 23.3119 28.1998 22.0082 28.1998 22.0082C27.9073 22.9671 28.6734 23.6811 29.4296 23.6976ZM28.1616 25.9018L28.0596 25.5606C27.2048 25.8013 26.7638 24.3099 26.7638 24.3099C26.488 25.3943 27.4441 26.1613 28.1616 25.9018ZM28.756 24.5188C27.7339 24.6973 27.3134 23.3887 27.3134 23.3887C27.2004 24.1009 27.6203 24.8228 28.2956 24.9002C28.1438 25.8293 28.9294 26.3063 29.6091 25.9749L29.5111 25.652C28.9205 25.867 28.3665 25.2255 28.756 24.5188ZM28.1438 20.7842L28.1521 20.4254C26.8026 20.1177 26.9167 19.0967 26.9167 19.0967C26.6248 20.0587 27.3899 20.769 28.1438 20.7842Z" fill="#D0D5D6"/>
<path fill-rule="evenodd" clip-rule="evenodd" d="M19.5908 35.7407L19.1061 36.8193H19.4705L19.9535 35.7407H19.5908Z" fill="#D0D5D6"/>
<path fill-rule="evenodd" clip-rule="evenodd" d="M20.3191 35.7407L19.8365 36.8193H20.2031L20.6823 35.7407H20.3191Z" fill="#D0D5D6"/>
<path fill-rule="evenodd" clip-rule="evenodd" d="M23.2421 35.7407L22.7612 36.8193H23.1226L23.6056 35.7407H23.2421Z" fill="#D0D5D6"/>
<path fill-rule="evenodd" clip-rule="evenodd" d="M23.9756 35.7407L23.4896 36.8193H23.8548L24.3357 35.7407H23.9756Z" fill="#D0D5D6"/>
<path fill-rule="evenodd" clip-rule="evenodd" d="M22.5124 35.7407L22.0286 36.8193H22.3929L22.8755 35.7407H22.5124Z" fill="#D0D5D6"/>
<path fill-rule="evenodd" clip-rule="evenodd" d="M26.7811 36.8193H27.1438L27.6268 35.7407H27.2629L26.7811 36.8193Z" fill="#D0D5D6"/>
<path fill-rule="evenodd" clip-rule="evenodd" d="M21.0505 35.7407L20.5692 36.8193H20.9332L21.4149 35.7407H21.0505Z" fill="#D0D5D6"/>
<path fill-rule="evenodd" clip-rule="evenodd" d="M21.7798 35.7407L21.2976 36.8193H21.6637L22.145 35.7407H21.7798Z" fill="#D0D5D6"/>
<path fill-rule="evenodd" clip-rule="evenodd" d="M20.1265 29.9465C20.06 29.9465 20.0024 30.019 20.0024 30.1116C20.0024 30.2 20.06 30.2725 20.1265 30.2725C20.1963 30.2725 20.2539 30.2 20.2539 30.1116C20.2539 30.019 20.1963 29.9465 20.1265 29.9465ZM19.9791 5.03875L20.5525 3.69787L21.62 4.32049L22.7956 3.04357L23.9734 4.32049L25.0382 3.69787L25.6083 5.03875L26.3152 4.91812C26.1351 5.29279 25.9977 5.61994 25.8709 6.07868C25.0975 5.58156 23.9468 5.19898 22.7956 5.19898C21.6422 5.19898 20.4949 5.58156 19.7198 6.07868C19.5908 5.61994 19.4567 5.29279 19.2733 4.91812L19.9791 5.03875ZM22.7967 5.62603C24.2942 5.62603 25.4941 6.17189 26.1567 6.75917C26.1567 6.75917 26.3551 5.45058 27.0254 4.30221L25.8193 4.45146L25.1878 2.97473L23.9734 3.66862L22.7967 2.38379L21.62 3.66862L20.4029 2.97473L19.7708 4.45146L18.5653 4.30221C19.2379 5.45058 19.4334 6.75917 19.4334 6.75917C20.0954 6.17189 21.2965 5.62603 22.7967 5.62603Z" fill="#D0D5D6"/>
<path fill-rule="evenodd" clip-rule="evenodd" d="M24.0277 2.9822C24.2038 2.99865 24.3584 2.85366 24.3734 2.66115C24.3905 2.47047 24.1346 1.95508 24.1346 1.95508C24.1346 1.95508 23.7512 2.40894 23.739 2.60328C23.723 2.79396 23.8543 2.96332 24.0277 2.9822ZM26.0049 3.77174C26.1622 3.86373 26.3522 3.79428 26.4364 3.62309C26.5201 3.45556 26.4658 2.87316 26.4658 2.87316C26.4658 2.87316 25.955 3.12476 25.8719 3.29656C25.7921 3.46653 25.8503 3.67853 26.0049 3.77174ZM21.5608 2.9822C21.7386 2.96332 21.8682 2.79396 21.8522 2.60328C21.8366 2.40894 21.4572 1.95508 21.4572 1.95508C21.4572 1.95508 21.2018 2.47047 21.2184 2.66115C21.2317 2.85366 21.3885 2.99865 21.5608 2.9822ZM19.5852 3.77174C19.7414 3.67853 19.8007 3.46653 19.7165 3.29656C19.6345 3.12476 19.1243 2.87316 19.1243 2.87316C19.1243 2.87316 19.0717 3.45556 19.1564 3.62309C19.2379 3.79428 19.4296 3.86373 19.5852 3.77174ZM41.464 15.9864C41.5941 16.305 41.8523 17.4125 41.2341 18.2569C40.5316 16.7101 39.5632 15.3863 38.7815 14.8149C38.6098 14.6936 38.8752 14.4762 39.3566 14.4067C40.8163 14.1033 42.5254 14.7832 43.3381 15.0202C42.9597 15.3333 42.6506 15.4716 42.2656 15.5252C42.8567 16.0698 43.286 16.531 43.5924 17.0446C43.0179 17.2018 42.6971 16.8027 41.464 15.9864ZM43.3027 15.7238C43.7242 15.5593 44.05 15.1158 44.2118 14.7089C43.1403 14.5377 40.2923 13.2236 37.9522 14.2946C38.8286 13.3784 39.6153 13.2608 39.689 11.9443C40.0541 12.2318 40.6684 12.3939 41.0136 11.7079C40.7731 10.9226 40.1621 11.5587 40.0779 11.3424C39.9577 11.0439 40.8468 11.4368 41.0374 10.4176C40.346 10.1563 40.1394 10.777 40.0164 10.6333C39.9023 10.4956 40.4557 10.2348 40.048 9.41362C39.3278 9.87601 39.7034 10.3981 39.5516 10.4548C39.3666 10.5364 39.5117 9.89855 38.7173 9.92841C38.6392 10.8666 39.4652 10.8977 39.3278 11.0469C39.166 11.2297 38.9505 10.5065 38.3494 10.8727C38.3605 11.6311 38.9173 12.0466 39.4951 11.8681C39.402 13.3095 38.2004 13.0409 37.3046 14.6638C39.1998 15.7323 40.0568 17.5971 41.2235 18.8838C41.6091 18.5853 42.2684 17.2468 42.2684 17.2468C43.5303 18.3227 44.4189 17.2517 44.4189 17.2517C43.9841 16.7625 43.968 16.3909 43.3027 15.7238ZM22.4438 41.2887L21.6234 41.2545L21.5286 41.617L21.6317 41.6219C21.6655 41.6219 21.6655 41.5518 21.6948 41.5135C21.712 41.4994 21.8605 41.4726 21.9785 41.486L22.3225 41.5147C22.1192 41.9783 21.5896 42.4151 21.5962 42.7221C21.6045 42.886 21.7552 42.9201 21.8444 42.914C22.01 42.9085 22.0632 42.7794 22.1064 42.5826C22.2056 42.1257 22.4072 41.7766 22.5524 41.2545L22.4505 41.2588L22.4438 41.2887ZM23.0039 41.8272L23.0177 41.5494H23.7313L23.6942 41.2387C23.4986 41.2454 23.2122 41.3161 22.9479 41.3179L22.8997 41.9247C23.2305 41.9088 23.446 42.0672 23.446 42.4486C23.446 42.5899 23.3612 42.8562 23.2122 42.8756C23.1779 42.8811 23.1324 42.8677 23.1108 42.8488C23.0388 42.7897 23.133 42.7258 23.133 42.6271C23.133 42.5022 23.0155 42.4571 22.938 42.4724C22.815 42.4803 22.7701 42.5674 22.7701 42.6752C22.7701 42.8994 23.0715 42.9609 23.2022 42.9609C23.4942 42.9609 23.8332 42.7818 23.8332 42.4169C23.8332 41.9375 23.3457 41.8369 23.0039 41.8272ZM24.7146 42.0751C24.4614 42.0751 24.4249 41.6396 24.4249 41.4288C24.4249 41.3685 24.4753 41.285 24.5307 41.285C24.7623 41.285 24.8265 41.8772 24.8448 42.0441C24.8071 42.0599 24.7623 42.0751 24.7146 42.0751ZM24.5534 41.2022C24.2991 41.2022 24.0886 41.4117 24.0886 41.698C24.0886 42.1501 24.5296 42.2987 24.857 42.1269C24.8974 42.4778 24.8326 42.73 24.7113 42.7386C24.6077 42.7386 24.6227 42.6533 24.6077 42.582C24.5806 42.4443 24.4836 42.4078 24.3817 42.4443C24.2753 42.4778 24.2587 42.5826 24.277 42.6594C24.3246 42.8379 24.5246 42.8421 24.6199 42.8287C25.0415 42.7757 25.2165 42.4334 25.2165 42.0526C25.2165 41.6109 24.9872 41.2022 24.5534 41.2022ZM21.0455 41.1096C21.0079 41.1601 20.8323 41.4026 20.4533 41.7121L20.4843 41.7748C20.5265 41.7492 20.5929 41.7151 20.7076 41.6396L20.4843 42.4961C20.4727 42.543 20.4212 42.5485 20.3957 42.543L20.2622 42.5211L20.2378 42.6228L20.9624 42.7654L20.984 42.6661L20.8594 42.6344C20.8228 42.6228 20.799 42.5948 20.8062 42.5485L21.1358 41.1248L21.0455 41.1096Z" fill="#D0D5D6"/>
<path fill-rule="evenodd" clip-rule="evenodd" d="M26.5339 42.1227L25.8913 39.8223C27.2597 39.5122 28.2136 39.1918 28.941 38.8823V40.3176L30.0701 40.8178C29.1161 41.296 27.9328 41.7706 26.5339 42.1227ZM22.7967 43.4666C21.5181 43.4666 20.2728 43.2564 19.2058 42.9689L19.8844 40.5594C20.3348 40.6734 21.4588 40.8251 22.7967 40.8251C24.1346 40.8251 25.2548 40.6734 25.7079 40.5594L26.3877 42.9689C25.3174 43.2564 24.0698 43.4666 22.7967 43.4666ZM15.5179 40.8178L16.6497 40.3176V38.8823C17.3765 39.1918 18.331 39.5122 19.6994 39.8223L19.0584 42.1227C17.6618 41.7706 16.4763 41.296 15.5179 40.8178ZM29.2906 40.0179V38.2597C28.0541 38.8823 26.4813 39.3879 24.4581 39.589L24.3656 40.2171C24.5385 40.2433 24.7551 40.267 25.047 40.2865C24.2953 40.401 23.328 40.4559 22.7967 40.4559C22.2643 40.4559 21.2976 40.401 20.5459 40.2865C20.8356 40.267 21.0522 40.2433 21.2251 40.2171L21.1337 39.589C19.1094 39.3879 17.5338 38.8823 16.3001 38.2597V40.0179L14.6232 40.7757C15.8647 41.4867 17.2951 42.066 18.946 42.5345L18.7515 43.271C19.6988 43.575 21.2101 43.8857 22.7967 43.8857C24.3817 43.8857 25.8941 43.575 26.8392 43.271L26.6436 42.5345C28.2951 42.066 29.7266 41.4867 30.9686 40.7757L29.2906 40.0179ZM1.9972 17.0451C2.30355 16.5315 2.73013 16.0703 3.32622 15.5275C2.93676 15.4721 2.63152 15.3338 2.25092 15.0207C3.06473 14.7837 4.77767 14.1038 6.23522 14.4072C6.71386 14.4766 6.98476 14.6941 6.80915 14.8153C6.02525 15.3868 5.05743 16.7106 4.35331 18.2562C3.73839 17.413 3.99655 16.3055 4.12673 15.9869C2.89521 16.8032 2.57335 17.2022 1.9972 17.0451ZM3.32179 17.2473C3.32179 17.2473 3.98103 18.5858 4.3655 18.8843C5.53331 17.5976 6.39144 15.7328 8.28553 14.6643C7.38918 13.0413 6.18536 13.313 6.09838 11.8698C6.67176 12.0471 7.23074 11.6298 7.24237 10.8731C6.63907 10.5107 6.42523 11.232 6.26236 11.0474C6.12719 10.8951 6.95263 10.867 6.87341 9.92946C6.07788 9.90265 6.22524 10.5368 6.03744 10.4552C5.88842 10.3967 6.26236 9.87524 5.54051 9.41406C5.13499 10.2389 5.68954 10.4954 5.57431 10.6337C5.45243 10.7775 5.24358 10.1567 4.55441 10.418C4.74055 11.4373 5.63248 11.0443 5.51171 11.3428C5.4275 11.5591 4.81811 10.9243 4.57879 11.7096C4.9206 12.3943 5.53719 12.2323 5.89894 11.946C5.97484 13.2667 6.76095 13.3758 7.63958 14.2951C5.29953 13.2241 2.45036 14.5375 1.37618 14.7099C1.5396 15.1163 1.86535 15.5598 2.28583 15.7206C1.62381 16.3944 1.60774 16.7642 1.17175 17.251C1.17175 17.251 2.05869 18.3232 3.32179 17.2473ZM21.7691 16.2677V17.042C22.0134 16.721 22.4815 16.7831 22.4815 16.7831V17.898C22.4815 17.898 22.466 18.4481 22.2887 18.6863H23.3042C23.1275 18.4481 23.1108 17.898 23.1108 17.898V16.7831C23.1108 16.7831 23.579 16.721 23.8222 17.042V16.2677H21.7691Z" fill="#D0D5D6"/>
<path fill-rule="evenodd" clip-rule="evenodd" d="M45.0261 16.6C44.9031 16.4605 44.8289 16.3343 44.727 16.1583C44.6743 16.0681 44.6167 15.9731 44.5513 15.8689C44.7281 15.6429 44.8793 15.3822 44.9923 15.0964L45.446 13.9596L44.3298 13.783C44.1408 13.7525 43.8372 13.6648 43.4832 13.5624C42.798 13.3651 41.9204 13.1116 40.9609 13.0014C41.2889 12.843 41.5659 12.5591 41.7603 12.1741L41.9437 11.8103C41.9437 11.8103 41.895 11.3004 41.7144 11.1402C41.7842 10.9824 41.8357 10.8082 41.8722 10.6181L42.0235 9.80422L41.3099 9.53555C41.1997 9.49291 41.0878 9.46306 40.9787 9.44356C40.9382 9.2943 40.8784 9.13652 40.797 8.97081L40.3731 8.1167L39.6086 8.60894C39.4186 8.732 39.258 8.87151 39.1278 9.02869C39.0137 9.00554 38.8918 8.99397 38.7633 8.99397C38.7633 8.99397 38.3284 8.94035 37.8453 9.13225L37.2287 8.42984L36.4996 7.57329C35.8182 6.77035 34.8942 6.53336 33.9513 6.92752C33.5918 6.53336 33.0306 6.20561 32.1602 6.20561C31.8655 6.20561 31.6068 6.2446 31.4534 6.26714C31.4534 6.26714 30.2545 6.50717 29.5814 7.21081L28.7632 6.78314C28.2153 7.73107 27.2779 8.03263 27.2779 8.03263C27.2148 7.75544 27.1045 7.49592 26.9489 7.26015L27.0026 6.92508C27.0026 6.91534 27.186 5.78281 27.7472 4.82391L28.7222 3.15468L27.3405 3.32526C27.3439 3.17417 27.3378 2.99689 27.3184 2.7855L27.1948 1.48605L26.1118 2.02337C25.9916 2.08307 25.8913 2.14095 25.7982 2.19639L25.5844 1.69501L25.0886 1.97829C25.0387 1.84305 24.975 1.69135 24.8875 1.5159L24.3157 0.36388L23.5041 1.32582C23.421 1.42513 23.3512 1.5159 23.2898 1.60362L22.7973 1.06508L22.302 1.60606C22.2405 1.51834 22.1724 1.42756 22.0893 1.32948L21.276 0.358398L20.7026 1.51651C20.6151 1.69318 20.5525 1.84305 20.5026 1.97829L20.0079 1.69562L19.793 2.19639C19.6993 2.14095 19.598 2.08307 19.4789 2.02215L18.3919 1.48483L18.2717 2.78854C18.2518 2.99872 18.2468 3.17539 18.2501 3.32526L16.8662 3.15468L17.8446 4.82514C18.4074 5.78282 18.5869 6.91351 18.5875 6.92204L18.639 7.25711C18.4817 7.49592 18.372 7.75544 18.3088 8.03263C18.3088 8.03263 17.4241 7.61654 16.8319 6.78192L15.9976 7.21933C15.0453 6.51265 14.4553 6.23729 13.4293 6.20561C12.5584 6.17941 11.9972 6.53336 11.6388 6.92691C10.6948 6.53397 9.77294 6.77217 9.09375 7.57329C9.09375 7.57329 8.64668 8.10696 8.36359 8.42984C8.0805 8.75394 7.66446 9.02138 7.66446 9.02138C7.66446 9.02138 7.07169 8.87517 6.46285 9.02991C6.33266 8.87212 6.1709 8.732 5.97756 8.60711L5.21139 8.1167L4.7898 8.97569C4.70947 9.13957 4.65075 9.29491 4.61141 9.44356C4.50172 9.46306 4.39093 9.49291 4.27957 9.53555L3.57102 9.80422L3.71949 10.6132C3.75495 10.8082 3.80647 10.9824 3.87738 11.1408C3.83638 11.2267 3.79982 11.3193 3.76935 11.4168L3.64969 11.8097L3.83195 12.1734C4.02474 12.5579 4.30118 12.843 4.6297 13.0014C3.67019 13.1116 2.79211 13.3651 2.10516 13.563C1.75283 13.6654 1.44758 13.7531 1.25922 13.7842L0.13739 13.9621L0.392779 14.5969L0.596648 15.1019C0.712432 15.3846 0.863117 15.6453 1.04039 15.8695C0.974469 15.9731 0.690272 16.4598 0.566178 16.5994L0 17.2342L0.544018 17.8939C0.611605 17.975 1.22099 18.6774 2.20765 18.6786C2.47689 18.6786 2.74502 18.6268 3.01038 18.5239C3.27353 18.9765 3.58432 19.434 3.87073 19.6594C3.34666 20.3375 2.74945 20.9248 1.90019 21.3695L1.18997 21.7417L1.49411 22.6336C1.69355 23.1715 2.07968 23.7631 2.82812 23.9891C2.66802 24.5148 2.59046 25.0156 2.52287 25.4591C2.36277 26.5155 2.29518 26.9529 1.44924 27.2794L0.689718 27.5719L0.906882 28.4235C1.08305 29.1174 1.34453 29.5768 1.63039 29.8783L1.12571 30.4894C1.12571 30.4894 2.32399 31.4763 3.49789 31.5969C3.51451 31.5994 4.51668 31.6694 4.96597 31.0395C5.14602 31.7535 5.43077 32.412 5.68837 33.0103C6.21909 34.2372 6.50163 34.9646 6.14597 35.6268L5.34434 37.1231L6.92211 37.0506C7.61072 37.0189 8.25113 36.9738 8.80401 36.8227C8.80401 36.8562 8.80235 36.8867 8.79903 36.9178L8.66995 38.2026L10.0522 37.8821C10.1984 37.834 10.3336 37.7719 10.4588 37.6976C11.3153 38.7978 12.7684 39.6574 14.7284 39.6574H14.8431L12.59 40.6748L14.2298 41.6136C15.3101 42.2319 16.5106 42.7504 17.8795 43.189L17.6884 43.9103L18.5121 44.1753C18.9875 44.3294 20.7048 44.8296 22.7967 44.8296C24.8886 44.8296 26.6043 44.3282 27.0807 44.1753L27.9023 43.9103L27.7117 43.1902C29.0823 42.7504 30.2833 42.2319 31.3636 41.6136L33.0045 40.6748L30.7498 39.6574H30.8634C32.8217 39.6574 34.2754 38.7978 35.1313 37.6976C35.2554 37.7701 35.3922 37.834 35.5368 37.8821L36.9185 38.2026L36.7922 36.919C36.7894 36.8885 36.7877 36.8568 36.7877 36.8233C37.3401 36.9738 37.981 37.0189 38.6691 37.0506L40.2446 37.1231L39.4458 35.6281C39.0896 34.9646 39.3726 34.2379 39.9023 33.0109C40.1604 32.4139 40.4446 31.7541 40.6252 31.0395C40.9294 31.2947 41.2551 31.4464 41.5814 31.5263C41.5814 31.5263 41.834 31.6097 42.0761 31.6164C42.7741 31.6396 43.1209 31.4221 43.6007 31.0901L44.4705 30.4882L43.9613 29.8765C44.2467 29.5749 44.5081 29.1162 44.6849 28.426L44.9042 27.5719L44.1425 27.2794C43.296 26.9529 43.2295 26.5155 43.0683 25.4597C42.9996 25.0156 42.9248 24.5148 42.7631 23.9891C43.511 23.7625 43.8965 23.1703 44.096 22.6336L44.3996 21.7405L43.6899 21.3695C42.8401 20.9248 42.2434 20.3375 41.7188 19.6594C42.0063 19.4334 42.3171 18.9753 42.5819 18.5239C42.8456 18.6268 43.1126 18.6774 43.383 18.6786C44.3696 18.6786 44.9807 17.9756 45.0472 17.8951L45.5912 17.236L45.0261 16.6Z" fill="#FFFFFE"/>
<path fill-rule="evenodd" clip-rule="evenodd" d="M22.7967 37.9961C22.0882 37.2218 21.584 37.1365 19.6756 37.1365C17.3965 37.1365 15.8469 35.6671 15.8469 33.3167V28.6136H29.7449V33.3167C29.7449 35.6671 28.1987 37.1365 25.9146 37.1365C24.0055 37.1365 23.5008 37.2218 22.7967 37.9961ZM15.8469 28.1914V21.0166C15.8469 20.3483 15.6713 19.6812 15.4608 19.0659H20.5232C20.988 19.7671 21.8306 20.2374 22.7967 20.2374C23.7596 20.2374 24.6022 19.7671 25.0675 19.0659H30.131C29.916 19.6812 29.7432 20.3483 29.7432 21.0166V28.1914H15.8469Z" fill="#FFE52B"/>
<path fill-rule="evenodd" clip-rule="evenodd" d="M16.6512 38.8838V40.3173L15.5211 40.8175C16.4778 41.2957 17.6634 41.7703 19.0589 42.1218L19.701 39.8238C18.3315 39.5125 17.3781 39.1915 16.6512 38.8838ZM22.7967 40.8248C21.4593 40.8248 20.3347 40.6731 19.8854 40.5579L19.2074 42.9686C20.2727 43.2561 21.5197 43.4663 22.7967 43.4663C24.0697 43.4663 25.3162 43.2561 26.3865 42.9686L25.7062 40.5579C25.2547 40.6731 24.1346 40.8248 22.7967 40.8248ZM28.9393 38.8838C28.2125 39.1915 27.2596 39.5125 25.8907 39.8238L26.5339 42.1218C27.9311 41.7703 29.1144 41.2957 30.0689 40.8175L28.9393 40.3173V38.8838ZM12.1661 15.9659C10.615 17.7892 11.2864 18.8797 11.6 19.216C11.0221 19.0795 10.1607 18.2705 10.3568 17.4871C10.1729 17.7295 9.98563 17.9921 9.79118 18.2632C9.40615 18.8273 9.06157 19.3811 8.75632 19.9172C8.28598 21.4549 9.14855 23.0431 10.615 23.7467C8.98401 23.4835 8.25274 21.888 8.25773 20.8731C7.47827 22.4911 7.10709 23.9679 7.14089 25.2082C7.15584 25.6688 7.19185 26.1007 7.2467 26.5058C7.6212 27.2875 8.22283 27.5744 9.29369 27.717C8.31922 27.7846 7.80512 27.7346 7.38021 27.2472C8.04444 30.3816 11.144 33.0963 12.4071 35.421C11.144 33.6141 8.52752 30.9245 7.61067 28.978C7.53976 29.6811 7.71039 31.4831 8.50703 32.5913C7.33478 31.3247 7.24393 29.4033 7.31927 28.2799C7.02233 27.4708 6.83453 26.5668 6.80904 25.5384C6.78522 24.5923 6.84616 23.7729 6.9769 23.0345C6.23677 24.192 5.16757 24.6386 4.64072 26.3998C4.74321 24.1269 6.28663 24.0915 7.44059 21.3342C7.88822 20.1274 8.53694 19.0869 9.25713 17.9044C8.34305 18.2333 7.65942 18.4679 6.60241 19.7418C7.35306 17.7892 11.6919 15.5948 13.6791 13.4699C13.0835 13.6088 10.646 13.6764 9.63495 12.9338C11.4681 13.4803 15.5466 12.8558 17.0867 11.6977C16.023 13.3797 13.709 13.4748 10.8914 16.82C11.2543 16.5099 11.7324 16.1913 12.1661 15.9659ZM14.2835 15.7721C16.0552 14.7206 20.384 12.4062 17.4495 9.90967C17.049 9.57095 16.6097 9.26634 16.2391 8.88619C15.7809 9.27487 16.4114 10.2387 16.5682 10.592C16.5682 10.592 15.5915 10.7004 15.3571 10.7004C13.8481 10.6931 12.2647 9.71046 13.0664 7.82556C12.4658 7.96202 12.3916 8.59622 12.2082 9.14146C11.8227 8.85452 11.154 8.23921 10.6382 8.32572C11.0576 9.80062 12.8221 11.1293 14.1904 11.4309C12.8054 12.2594 10.2405 12.8759 8.89039 11.0922C7.94251 13.1074 9.26323 13.9506 10.5557 15.0063C5.63015 17.4779 6.35643 20.2511 3.125 22.4339C3.54493 22.6501 5.41354 22.2158 5.57974 22.1896C4.87783 23.1905 4.55042 23.6133 4.34545 24.0988C4.14989 24.5558 4.06069 25.0705 3.8668 26.1811C3.71445 27.059 3.43635 27.9332 2.46631 28.5138C2.84635 29.2704 3.69118 28.6795 4.04463 28.5784C3.99643 28.6576 3.87788 29.5708 3.56044 30.0094C5.2202 29.8918 4.45181 26.0434 6.11323 26.9701C6.58135 27.2296 6.72207 27.8351 6.50546 28.331C5.4152 30.805 7.89376 32.986 7.75859 35.1542C8.36798 35.1487 8.99897 35.1311 9.39784 34.2258C9.60448 34.6772 9.92691 35.3114 10.1058 35.9243L10.6028 34.9946C10.908 36.5323 12.2127 37.9548 13.9755 38.0815C13.1345 36.6188 14.1417 34.6199 12.0997 32.4962C12.3534 32.2708 12.9423 31.8346 13.1528 31.5379C10.6454 31.862 8.02949 29.6811 9.21669 28.646C9.99394 27.9698 10.333 29.3734 11.5318 29.1376L11.0631 28.6923C11.2282 28.5138 11.4155 28.2799 11.6105 28.105C11.1019 28.0368 10.5452 27.6786 10.5452 27.6786L10.8487 27.1266C7.91204 27.123 7.8367 24.6526 9.02999 24.5539C9.59119 24.5088 10.3153 25.6444 12.1235 25.4086C11.8919 25.1016 11.7999 24.6398 11.6903 24.2968C12.1274 24.253 12.6409 24.2572 13.0531 24.0367C12.17 23.9106 11.9462 23.5859 11.2122 22.973L12.0664 22.6294C10.8282 21.9508 10.9036 20.7664 10.8654 19.5328C11.5124 19.9428 12.2747 20.5782 13.0869 20.2821C13.2802 20.2108 13.4043 20.1128 13.4087 19.891C12.2476 19.389 11.5047 17.4237 14.2835 15.7721ZM38.6137 23.0345C38.7439 23.7729 38.8098 24.5929 38.7815 25.5384C38.7538 26.5668 38.5677 27.4708 38.2713 28.2799C38.3472 29.4033 38.2558 31.3247 37.0847 32.5913C37.8791 31.4819 38.0508 29.6811 37.981 28.978C37.0603 30.9245 34.4465 33.6141 33.1818 35.421C34.4465 33.0963 37.5472 30.3804 38.212 27.2472C37.7843 27.7346 37.273 27.7846 36.298 27.7176C37.3677 27.5744 37.9677 27.2875 38.3428 26.5058C38.3987 26.1007 38.4353 25.6688 38.4497 25.2076C38.4851 23.9679 38.1118 22.4911 37.3323 20.8731C37.34 21.888 36.6082 23.4835 34.9756 23.7479C36.4398 23.0431 37.3035 21.4549 36.8337 19.9172C36.5296 19.3811 36.1872 18.8273 35.7994 18.2632C35.6072 17.9921 35.4183 17.7301 35.2332 17.4871C35.4293 18.2705 34.5679 19.0795 33.9901 19.216C34.3042 18.8797 34.9734 17.7892 33.425 15.9659C33.8593 16.1913 34.338 16.5099 34.6992 16.82C31.8821 13.4748 29.5703 13.3804 28.5022 11.6977C30.0451 12.8558 34.1241 13.4809 35.9551 12.9338C34.9446 13.6764 32.5065 13.6088 31.9098 13.4699C33.8964 15.5948 38.2392 17.7892 38.9882 19.7411C37.9323 18.4679 37.2453 18.2333 36.3351 17.905C37.0553 19.0875 37.7029 20.1274 38.1489 21.3336C39.3056 24.0915 40.8496 24.1263 40.951 26.4011C40.4236 24.6374 39.3549 24.192 38.6137 23.0345ZM41.7227 26.1811C41.5288 25.0699 41.4418 24.5557 41.2457 24.1001C41.0429 23.6133 40.7144 23.1905 40.0086 22.1896C40.1759 22.2158 42.0484 22.6501 42.4667 22.4339C39.2347 20.2511 39.9615 17.4779 35.0343 15.0063C36.3285 13.9506 37.6475 13.108 36.7013 11.0909C35.3512 12.8759 32.7846 12.2594 31.4013 11.4309C32.7724 11.1293 34.5341 9.80184 34.9535 8.32572C34.4355 8.23921 33.7668 8.85452 33.3818 9.14024C33.1984 8.59622 33.1269 7.96141 32.5264 7.82373C33.3286 9.71046 31.7436 10.6931 30.2301 10.7004C29.9991 10.7004 29.023 10.592 29.023 10.592C29.1798 10.2387 29.8091 9.27487 29.3493 8.88619C28.9798 9.26634 28.5427 9.57095 28.141 9.90967C25.2049 12.4062 29.5382 14.7218 31.3082 15.7721C34.0831 17.4237 33.3441 19.3878 32.1829 19.891C32.1863 20.1128 32.312 20.2108 32.5054 20.2821C33.3136 20.5782 34.0787 19.9428 34.7241 19.5328C34.687 20.7652 34.7645 21.9508 33.5258 22.6294L34.3779 22.973C33.6427 23.5859 33.4217 23.9106 32.5386 24.0367C32.9486 24.2572 33.466 24.253 33.9014 24.2981C33.7895 24.6392 33.6948 25.1016 33.4665 25.4086C35.2764 25.6444 36.0027 24.5088 36.5606 24.5539C37.7494 24.6526 37.6796 27.123 34.7413 27.1266L35.046 27.6798C35.046 27.6798 34.4903 28.0368 33.9795 28.105C34.1734 28.2799 34.3646 28.5132 34.528 28.6923L34.0593 29.1376C35.2554 29.3734 35.5977 27.9698 36.3739 28.646C37.5611 29.6811 34.9462 31.862 32.4372 31.5379C32.6488 31.834 33.2361 32.2708 33.492 32.4974C31.4483 34.6199 32.4522 36.6188 31.6162 38.0833C33.3746 37.9548 34.6798 36.5323 34.9889 34.9946L35.4853 35.9243C35.6631 35.3114 35.9889 34.6772 36.1922 34.2258C36.5888 35.1311 37.2237 35.1493 37.8353 35.1542C37.6968 32.986 40.1743 30.805 39.0868 28.331C38.8696 27.8364 39.0098 27.2296 39.4779 26.9701C41.141 26.0434 40.3693 29.8918 42.0307 30.0094C41.7127 29.5708 41.5941 28.6576 41.5493 28.5784C41.9005 28.6795 42.7437 29.2723 43.1243 28.5132C42.1559 27.9332 41.8772 27.0578 41.7227 26.1811Z" fill="#FFFFFE"/>
<path fill-rule="evenodd" clip-rule="evenodd" d="M25.0669 19.0659C24.6021 19.7671 23.7584 20.2375 22.7967 20.2375C22.5729 20.2375 22.3557 20.2107 22.1513 20.1662C22.2083 20.4556 22.3441 20.7535 22.6244 21.0112C22.5102 21.8501 22.8404 22.6354 23.6592 22.842C23.7468 23.269 23.9866 23.5931 24.3922 23.7461L23.8221 24.4711C23.6022 24.7489 23.3152 24.8372 23.0836 24.8055L20.5347 24.4863C20.645 24.175 20.3502 23.8149 19.5431 23.9697L20.5436 20.8875L19.9336 19.4577L18.7769 20.5451L18.6916 23.7777L18.1935 23.5109C17.5515 23.2039 17.3625 24.4906 17.9736 24.496L18.2201 24.4991C18.2035 24.6313 18.2423 24.7775 18.3376 24.8244C18.2223 24.8756 18.1869 25.115 18.3315 25.1991C18.1863 25.2765 18.1653 25.5208 18.2833 25.6262C18.1575 25.8644 18.1337 26.3786 18.5797 26.509C18.947 26.6144 19.1774 26.1812 19.2528 25.9296L23.2194 27.2809C23.7772 27.4581 24.1805 27.3582 24.6464 26.9086L25.6819 25.9131C25.5517 26.5638 25.7639 27.1511 26.2143 27.3448C26.2143 27.3448 26.1422 27.9413 26.1705 28.1892L27.5577 28.1917H29.7432V21.0179C29.7432 20.349 29.916 19.6812 30.131 19.0659H25.0669ZM19.1259 31.1373L19.2029 31.2439C19.3109 31.3902 19.3735 31.3554 19.4971 31.2774L19.6771 31.1727C19.7896 31.0794 20.5281 31.3883 20.5702 30.7139C20.6516 31.2177 20.1065 32.2778 20.4339 32.8706L20.8771 33.6687L19.43 33.6912C19.2716 33.6912 19.1891 33.796 19.1453 33.8923L18.7669 34.7556C18.6689 34.9822 18.6755 35.2198 18.8002 35.377L19.0561 35.6938C19.0561 35.6938 19.2655 35.4976 19.3331 35.2424L19.2195 35.1138C19.1259 35.0139 19.1259 34.9219 19.1774 34.7976L19.4107 34.2657C19.501 34.0568 19.5918 34.0123 19.7973 34.0647L20.9668 34.3425C21.0532 34.3651 21.1912 34.4114 21.2743 34.2542C21.4167 33.9745 21.6709 33.9563 21.9274 33.9989C22.5695 34.1049 24.0515 34.2737 24.5805 33.595C25.201 34.5009 26.4137 34.5009 26.3339 34.9749L26.078 36.5327H26.4641L26.6984 34.9408C26.725 34.7556 26.8286 34.5003 26.6469 34.3577C26.5727 34.2938 26.5383 34.2621 26.3694 33.9429C26.1489 33.5182 26.1605 32.8828 25.9472 32.3363C26.1489 32.0749 26.3672 31.986 26.5577 32.0341C26.9849 32.1493 27.1012 32.9602 27.7084 33.6224C27.6391 33.3281 27.6103 33.0052 27.4663 32.7256C27.4663 32.7256 27.8879 33.085 27.9964 33.5054C28.0657 33.7698 28.1361 33.9617 28.3516 34.0836C28.495 34.1409 28.6651 34.0647 28.8363 33.8393C28.8363 33.8393 28.4358 33.2136 28.1427 32.8042C27.7411 32.2413 27.2037 31.6777 26.4713 31.7429C26.2414 31.7642 26.0181 31.8794 25.8065 32.0177C24.9755 31.5059 24.3296 32.0475 24.072 32.0475L22.5152 31.9458C22.2083 31.9245 21.9673 31.5339 21.9673 31.5339C21.9274 30.0852 20.8693 29.5076 20.5042 29.5076C20.5042 29.5076 20.5386 29.2463 20.4422 29.1555L20.1164 29.6045L19.214 29.2426L19.9214 29.8799L19.1536 30.8613C19.0749 30.9582 19.0871 31.0849 19.1259 31.1373Z" fill="#FFFFFE"/>
<path fill-rule="evenodd" clip-rule="evenodd" d="M18.1038 33.1729C17.8867 33.3581 17.8955 33.617 18.0274 33.9058L18.1581 34.1732L18.4983 33.8887L18.4213 33.7047C18.3664 33.5756 18.3681 33.444 18.4645 33.3611L18.9514 32.9566C19.0883 32.8469 19.1309 32.8354 19.2772 32.8585L20.3065 33.0967C20.3065 33.0967 20.1514 32.8469 20.0982 32.5929L19.1293 32.4522C18.9919 32.4327 18.9093 32.4979 18.7891 32.5972L18.1038 33.1729ZM24.6852 36.5327H25.0736L25.6974 34.8403C25.7195 34.7824 25.7489 34.7556 25.7727 34.7075C25.4924 34.5863 25.3284 34.4991 25.0946 34.3517C25.2514 34.5826 25.3738 34.6819 25.309 34.8945L24.6852 36.5327ZM23.4681 12.8567L24.9268 12.2414C24.9268 12.2414 24.9268 12.4381 24.5063 12.7519C24.1323 13.037 23.4681 13.341 23.4681 13.341V12.8567ZM23.4681 11.6839L25.1251 11.0333C25.1251 11.0333 24.9268 11.2642 24.5063 11.5816C24.1323 11.8642 23.4681 12.1682 23.4681 12.1682V11.6839ZM23.4681 10.5818L25.2808 9.84712C25.2808 9.84712 24.9268 10.1627 24.5063 10.4795C24.1323 10.7646 23.4681 11.068 23.4681 11.068V10.5818ZM25.0148 13.6547L25.735 9.09961L23.0055 10.1194V14.8177L25.0148 13.6547Z" fill="#FFFFFE"/>
<path fill-rule="evenodd" clip-rule="evenodd" d="M20.1569 17.6846L20.2179 17.7894H20.7796L20.7857 17.8973C20.7929 18.0002 20.8134 18.1069 20.845 18.2147C20.932 18.5096 21.1048 18.8172 21.384 19.0664C21.7064 19.3522 22.1729 19.5605 22.7939 19.5605C24.139 19.5605 24.7468 18.6028 24.8055 17.8973L24.8088 17.7894H25.3733L25.4332 17.6846C25.9639 16.7713 26.6115 15.7569 27.3655 15.6131L25.3124 14.3032L22.795 15.8093L20.276 14.3032L18.2257 15.6131C18.9764 15.7569 19.6234 16.7713 20.1569 17.6846Z" fill="#FFFFFE"/>
<path fill-rule="evenodd" clip-rule="evenodd" d="M22.1225 11.6839V12.1682C22.1225 12.1682 21.4593 11.8654 21.0859 11.5816C20.6621 11.2636 20.4655 11.0333 20.4655 11.0333L22.1225 11.6839ZM22.1225 10.5819V11.068C22.1225 11.068 21.4593 10.7646 21.0859 10.4795C20.6621 10.1621 20.3076 9.84718 20.3076 9.84718L22.1225 10.5819ZM22.1225 13.3415C22.1225 13.3415 21.4593 13.0369 21.0859 12.753C20.6621 12.4387 20.6621 12.2413 20.6621 12.2413L22.1225 12.8566V13.3415ZM22.5817 14.8176V10.1195L19.855 9.0991L20.5724 13.6546L22.5817 14.8176ZM22.7956 7.08998C21.2355 7.08998 20.0666 7.65227 19.8129 8.3108L22.7956 9.60656L25.776 8.3108C25.5229 7.65227 24.3551 7.08998 22.7956 7.08998ZM22.7967 5.21001C23.9462 5.21001 25.0963 5.59258 25.8708 6.08969C25.9965 5.63157 26.1323 5.30504 26.3151 4.93039L25.6082 5.04979L25.0381 3.70896L23.9717 4.33217L22.7967 3.05469L21.62 4.33217L20.5541 3.70896L19.9791 5.04979L19.2738 4.93039C19.4583 5.30504 19.5918 5.63157 19.7209 6.08969C20.4965 5.59258 21.6433 5.21001 22.7967 5.21001ZM42.2595 15.5346C42.6456 15.4798 42.9548 15.3397 43.3326 15.0284C42.5182 14.7902 40.8108 14.1121 39.3533 14.4161C38.8713 14.4856 38.6048 14.7006 38.7766 14.8231C39.5593 15.3939 40.5266 16.7177 41.2296 18.2632C41.8473 17.4201 41.5881 16.3113 41.459 15.9939C42.6916 16.8109 43.0135 17.2081 43.5863 17.0527C43.2816 16.5386 42.8506 16.0762 42.2595 15.5346ZM4.35929 18.2632C5.06286 16.7177 6.03068 15.3939 6.81513 14.8231C6.98964 14.7006 6.71929 14.4856 6.24064 14.4161C4.78143 14.1121 3.07071 14.7902 2.25634 15.0284C2.63804 15.3397 2.94329 15.4798 3.33164 15.5346C2.73831 16.0774 2.30897 16.5386 2.00427 17.0527C2.57987 17.2081 2.90063 16.8109 4.1316 15.9933C4.00418 16.3126 3.74381 17.4201 4.35929 18.2632Z" fill="#FFFFFE"/>
<path fill-rule="evenodd" clip-rule="evenodd" d="M10.6028 34.9946L10.1059 35.9243C9.92695 35.3114 9.60453 34.6772 9.39789 34.2258C8.99902 35.1311 8.36803 35.1494 7.75864 35.1542C7.89382 32.986 5.41527 30.8051 6.50552 28.3311C6.72268 27.8364 6.58142 27.2296 6.1133 26.9701C4.45189 26.0435 5.22027 29.8919 3.56052 30.0094C3.87795 29.5708 3.99651 28.6576 4.0447 28.5784C3.69126 28.6795 2.84643 29.2723 2.46639 28.5138C3.43642 27.9332 3.71453 27.059 3.86743 26.1811C4.06077 25.0705 4.14996 24.5558 4.34552 24.1001C4.5505 23.6133 4.8779 23.1905 5.57981 22.1896C5.41361 22.2158 3.54501 22.6501 3.12453 22.4339C6.3565 20.2511 5.62911 17.4779 10.5557 15.0064C9.26383 13.9506 7.94312 13.1081 8.89044 11.0922C10.2405 12.8759 12.8055 12.2594 14.1904 11.4309C12.8221 11.1293 11.0576 9.80185 10.6388 8.32573C11.154 8.23922 11.8227 8.85453 12.2072 9.14147C12.3922 8.59561 12.4659 7.96203 13.0664 7.82556C12.2648 9.71047 13.8481 10.6931 15.3571 10.7004C15.5915 10.7004 16.5682 10.592 16.5682 10.592C16.4114 10.2387 15.7809 9.27488 16.2391 8.8862C16.6097 9.26635 17.049 9.57096 17.4496 9.90968C20.384 12.4062 16.0541 14.7219 14.2824 15.7721C11.5047 17.4237 12.2476 19.389 13.4088 19.891C13.4043 20.1128 13.2802 20.2109 13.0869 20.2821C12.2748 20.5782 11.5125 19.9422 10.8654 19.5328C10.9036 20.7665 10.8272 21.9508 12.0665 22.6294L11.2122 22.9712C11.9462 23.5859 12.1701 23.9106 13.0531 24.0367C12.6409 24.2573 12.1285 24.253 11.6903 24.2981C11.8005 24.6398 11.8919 25.1016 12.1235 25.4087C10.3153 25.6444 9.59124 24.5089 9.03005 24.5539C7.83675 24.6526 7.9121 27.123 10.8488 27.1266L10.5441 27.6798C10.5441 27.6798 11.1003 28.0368 11.6105 28.105C11.4155 28.2787 11.2283 28.5138 11.0632 28.6923L11.5324 29.1376C10.333 29.3734 9.99399 27.9698 9.21674 28.646C8.02954 29.6811 10.6455 31.8621 13.1528 31.538C12.9423 31.8346 12.3534 32.2708 12.0997 32.4975C14.1417 34.62 13.1345 36.6188 13.9749 38.0833C12.2127 37.9536 10.9086 36.5323 10.6028 34.9946ZM12.9002 32.6065C13.468 32.1118 13.9378 31.8645 13.914 30.6674C13.062 31.1462 10.6471 31.1206 9.63833 29.5933C9.35247 29.1584 9.65827 28.9403 9.93305 29.282C10.6233 30.1435 11.9036 29.7536 12.37 29.505C12.2964 29.2077 12.0886 28.8227 11.9141 28.6576C12.0886 28.4687 12.5833 28.1873 12.6836 27.703C12.4193 27.5458 11.395 27.4325 11.395 27.4325C11.5596 27.2576 11.7645 27.0152 11.6421 26.37C10.5951 26.724 9.30261 26.2433 9.00789 25.8174C8.71926 25.3983 9.01398 25.006 9.25718 25.2838C9.77793 25.8851 12.3495 26.5759 13.3057 25.5281C12.9512 25.4202 12.5584 25.0705 12.4886 24.8543C13.3733 24.7568 14.0791 24.1823 14.1378 23.4665C13.6481 23.4665 12.7229 23.4275 12.4083 23.1668C12.8326 22.9944 13.1008 22.8256 13.2348 22.3029C11.6166 22.1951 11.4881 20.8731 11.4792 20.6544C12.5329 21.3227 14.3893 21.0248 13.9096 19.3793C13.0326 19.3275 12.149 17.7673 14.5605 16.3344C16.7538 15.0283 19.2461 13.621 19.0257 11.3054C18.8822 9.82257 16.6629 8.81188 16.3815 8.06194C15.4552 8.54688 15.2691 9.10979 15.6873 10.0522C15.6873 10.0522 13.6232 10.2776 13.4603 8.88133C13.3899 8.25506 13.77 7.669 14.1788 7.22183C13.9467 7.22183 12.3922 6.76432 11.9235 8.15698C11.0521 7.50268 10.307 7.52705 9.71976 8.21729C10.656 8.82833 11.236 10.9265 12.785 11.5454C11.6831 12.2021 9.90147 11.9274 8.86219 9.90968C7.8783 11.5393 7.31213 13.1537 9.42172 14.8766C5.58147 16.7987 5.60972 20.471 2.26973 22.2213C2.60877 23.221 3.32286 23.221 4.23306 23.0644C2.78881 25.1278 4.01977 27.2875 1.73291 28.1702C1.94786 29.0115 2.3772 29.6841 3.21982 29.438C2.98049 29.8486 2.82261 29.8407 2.44922 30.2921C3.69902 31.1578 5.18093 30.5309 5.51665 27.7541C5.57593 27.2576 6.19695 27.5683 5.98256 28.0551C4.5577 31.2937 8.16028 33.7305 6.88556 36.107C8.0096 36.0553 8.86551 35.9584 9.33363 35.5423C9.56354 36.04 9.70093 36.5341 9.65162 37.0209C10.2726 36.8826 10.4981 36.4787 10.5408 36.0144C10.9485 37.32 12.4022 38.7139 14.7284 38.7139C13.4941 36.7802 14.6436 34.8167 12.9002 32.6065Z" fill="#1A1919"/>
<path fill-rule="evenodd" clip-rule="evenodd" d="M7.38024 27.2472C7.80515 27.7345 8.31925 27.7845 9.29373 27.7175C8.22286 27.5743 7.62122 27.2874 7.24617 26.5058C7.19188 26.1006 7.15587 25.6687 7.14091 25.2082C7.10712 23.9678 7.47829 22.4911 8.25776 20.873C8.25277 21.8874 8.98349 23.4829 10.615 23.7479C9.14858 23.043 8.28601 21.4548 8.75635 19.9172C9.0616 19.3811 9.40619 18.8273 9.79121 18.2632C9.98455 17.9921 10.1729 17.7301 10.3568 17.4871C10.1607 18.2699 11.0222 19.0795 11.5983 19.2154C11.2864 18.8797 10.615 17.7892 12.1651 15.9659C11.7324 16.1913 11.2543 16.5099 10.8914 16.82C13.7074 13.4748 16.0231 13.3804 17.0867 11.6978C15.5466 12.8559 11.4681 13.4809 9.63499 12.9338C10.646 13.6765 13.0836 13.6088 13.6791 13.4699C11.692 15.5949 7.35309 17.7892 6.60188 19.7417C7.65834 18.4667 8.34308 18.2333 9.25716 17.905C8.53697 19.0874 7.88825 20.1274 7.44062 21.3342C6.28666 24.0915 4.74324 24.1268 4.64075 26.401C5.16759 24.6385 6.23569 24.1914 6.97693 23.0345C6.84619 23.7729 6.78525 24.5928 6.80852 25.5383C6.83456 26.5667 7.02236 27.4707 7.3193 28.2798C7.24396 29.4032 7.33481 31.3246 8.50706 32.5911C7.71042 31.483 7.53979 29.6809 7.6107 28.9779C8.52756 30.9243 11.1441 33.614 12.4083 35.4209C11.1441 33.0962 8.04447 30.3815 7.38024 27.2472ZM36.3363 17.905C37.2459 18.2333 37.9323 18.4667 38.9888 19.7417C38.2404 17.7892 33.8965 15.5949 31.9099 13.4699C32.5065 13.6076 34.9447 13.6765 35.9551 12.9338C34.1242 13.4809 30.0452 12.8559 28.5034 11.6978C29.5687 13.3804 31.8822 13.4748 34.6992 16.82C34.338 16.5099 33.8594 16.1913 33.4251 15.9659C34.9735 17.7892 34.3043 18.8797 33.9901 19.216C34.568 19.0795 35.4294 18.2699 35.2333 17.4871C35.4183 17.7301 35.6072 17.9921 35.7995 18.2632C36.1873 18.8273 36.5296 19.3811 36.8338 19.9172C37.3036 21.4548 36.4399 23.043 34.9768 23.7479C36.6083 23.4835 37.3401 21.8874 37.3318 20.873C38.1118 22.4911 38.4852 23.9678 38.4498 25.2082C38.4354 25.6687 38.3988 26.1006 38.344 26.5058C37.9678 27.2874 37.3662 27.5743 36.2975 27.7175C37.2731 27.7845 37.7844 27.7345 38.2121 27.2472C37.5473 30.3815 34.4477 33.0962 33.1819 35.4209C34.4477 33.614 37.0604 30.9243 37.9811 28.9779C38.052 29.6809 37.8797 31.483 37.0847 32.5911C38.2564 31.3246 38.3473 29.4032 38.2714 28.2786C38.5678 27.4707 38.7539 26.5667 38.7816 25.5383C38.8099 24.5928 38.7439 23.7729 38.6138 23.0345C39.355 24.192 40.4231 24.6385 40.951 26.401C40.8497 24.1268 39.3057 24.0915 38.149 21.3342C37.703 20.1274 37.0559 19.0874 36.3363 17.905Z" fill="#1A1919"/>
<path fill-rule="evenodd" clip-rule="evenodd" d="M41.5494 28.5784C41.5942 28.6576 41.7128 29.5708 42.0308 30.0095C40.3694 29.8919 41.14 26.0435 39.478 26.9701C39.0099 27.2296 38.8697 27.8364 39.0869 28.3311C40.1732 30.8051 37.6969 32.9861 37.8359 35.1542C37.2238 35.1494 36.5889 35.1311 36.1928 34.2258C35.9889 34.6772 35.6632 35.3114 35.4853 35.9231L34.9884 34.9946C34.6798 36.5323 33.3746 37.9548 31.6163 38.0833C32.4522 36.6188 31.4473 34.62 33.4932 32.4975C33.2356 32.2708 32.6489 31.834 32.4373 31.538C34.9463 31.8621 37.5612 29.6811 36.374 28.646C35.5973 27.9698 35.2554 29.3734 34.0594 29.1377L34.528 28.6923C34.3646 28.5138 34.1735 28.2799 33.9796 28.1051C34.4904 28.0368 35.046 27.6798 35.046 27.6798L34.7413 27.1267C37.6792 27.123 37.7495 24.6527 36.5606 24.554C36.0028 24.5089 35.2765 25.6445 33.4666 25.4087C33.6948 25.1017 33.7896 24.6399 33.9015 24.2981C33.466 24.253 32.9486 24.2573 32.5376 24.0368C33.4217 23.9106 33.6428 23.5859 34.3779 22.9731L33.527 22.6295C34.7646 21.9508 34.687 20.7665 34.7247 19.5329C34.0788 19.9428 33.3137 20.5783 32.5054 20.2822C32.3121 20.2109 32.1863 20.1128 32.1824 19.8911C33.3442 19.3891 34.0837 17.4238 31.3082 15.7722C29.5382 14.7219 25.2049 12.4063 28.1411 9.90975C28.5427 9.57103 28.9787 9.26642 29.3482 8.88627C29.8091 9.27495 29.1798 10.2387 29.023 10.5921C29.023 10.5921 29.9992 10.7005 30.2302 10.7005C31.7437 10.6932 33.3287 9.71054 32.5265 7.82381C33.127 7.96149 33.1985 8.59629 33.3818 9.14032C33.7669 8.8546 34.4355 8.23929 34.9535 8.3258C34.533 9.80192 32.7713 11.1294 31.4013 11.431C32.7846 12.2595 35.3518 12.876 36.7014 11.0922C37.6476 13.1081 36.3285 13.9506 35.0344 15.0064C39.9616 17.4768 39.2342 20.2511 42.4668 22.4339C42.0485 22.6502 40.176 22.2158 40.0087 22.1896C40.7145 23.1906 41.043 23.6133 41.2458 24.1001C41.4419 24.5558 41.5289 25.07 41.7228 26.1812C41.8773 27.059 42.156 27.9333 43.1244 28.5138C42.7438 29.2723 41.9006 28.6795 41.5494 28.5784ZM41.3577 23.0638C42.2668 23.2204 42.982 23.2204 43.321 22.2213C39.9799 20.471 40.0087 16.7987 36.169 14.8767C38.2797 13.1538 37.7102 11.5394 36.7302 9.90975C35.692 11.9275 33.9048 12.2022 32.8079 11.5455C34.353 10.9265 34.9363 8.8284 35.8726 8.21676C35.287 7.52591 34.5391 7.50276 33.6666 8.15583C33.1951 6.7644 31.6434 7.22191 31.4102 7.22191C31.8179 7.66907 32.2029 8.25452 32.1298 8.8814C31.9692 10.2777 29.9044 10.0523 29.9044 10.0523C30.321 9.10986 30.136 8.54695 29.2092 8.06202C28.9261 8.81195 26.7101 9.82264 26.5661 11.3048C26.3439 13.6211 28.8391 15.0283 31.0301 16.3345C33.4411 17.7674 32.5569 19.3275 31.6838 19.3793C31.1991 21.026 33.0555 21.3227 34.112 20.6544C34.107 20.8731 33.9729 22.1951 32.3542 22.3035C32.491 22.8256 32.758 22.9944 33.1818 23.1668C32.8655 23.4275 31.942 23.4665 31.4534 23.4665C31.511 24.1824 32.2185 24.7568 33.1037 24.8543C33.0334 25.07 32.64 25.4203 32.286 25.5281C33.2422 26.5759 35.8128 25.8851 36.3363 25.2838C36.5756 25.006 36.8676 25.3983 36.5828 25.8163C36.287 26.2433 34.9956 26.724 33.948 26.37C33.8278 27.0146 34.0295 27.2589 34.1951 27.4325C34.1951 27.4325 33.1708 27.5446 32.9054 27.703C33.0051 28.1873 33.5021 28.4688 33.6766 28.6576C33.5021 28.8227 33.2949 29.2077 33.2201 29.505C33.6899 29.7536 34.969 30.1429 35.6565 29.2821C35.9346 28.9403 36.2382 29.1584 35.954 29.5928C34.9447 31.1207 32.5287 31.1456 31.6761 30.6674C31.6523 31.8645 32.1232 32.1106 32.6899 32.6065C30.9437 34.8167 32.0977 36.7802 30.8634 38.7139C33.1879 38.7139 34.6416 37.3182 35.0499 36.0145C35.0959 36.4787 35.3192 36.8826 35.9385 37.0209C35.8909 36.5329 36.0294 36.04 36.2548 35.5423C36.7252 35.9584 37.5833 36.0553 38.7052 36.1071C37.4332 33.7305 41.0347 31.2937 39.6059 28.0551C39.3949 27.5684 40.0154 27.2589 40.0752 27.7542C40.4092 30.5309 41.8928 31.1578 43.1437 30.2921C42.7676 29.8407 42.6119 29.8486 42.3715 29.438C43.2136 29.6841 43.6423 29.0116 43.8584 28.1702C41.5732 27.2875 42.8041 25.1278 41.3577 23.0638ZM18.1038 33.1725L18.7891 32.5992C18.9121 32.4975 18.9919 32.4323 19.1309 32.4518L20.0982 32.5925C20.1514 32.8466 20.3065 33.0963 20.3065 33.0963L19.2772 32.8581C19.1309 32.8392 19.0883 32.8466 18.9514 32.955L18.4645 33.3607C18.367 33.4436 18.3647 33.5752 18.4196 33.7043L18.4983 33.8907L18.1581 34.174L18.0274 33.9054C17.8955 33.6166 17.8867 33.3559 18.1038 33.1725ZM19.6755 31.1724L19.4971 31.2766C19.3736 31.3552 19.311 31.3899 19.2029 31.2431L19.1259 31.1353C19.0872 31.0847 19.075 30.958 19.1536 30.8611L19.9198 29.8797L19.214 29.2425L20.1131 29.6068L20.4422 29.1553C20.5386 29.2461 20.5048 29.5069 20.5048 29.5069C20.8693 29.5069 21.9275 30.085 21.9679 31.5343C21.9679 31.5343 22.2084 31.9236 22.5125 31.9437L24.0714 32.0473C24.3296 32.0473 24.9755 31.5057 25.8065 32.0174C26.0159 31.8791 26.2414 31.7676 26.4713 31.739C27.2037 31.6793 27.7411 32.241 28.1427 32.8051C28.4358 33.2133 28.8374 33.839 28.8374 33.839C28.6646 34.0644 28.4951 34.1405 28.3516 34.0833C28.1361 33.9614 28.0657 33.7695 27.9965 33.5051C27.8868 33.0848 27.4663 32.7253 27.4663 32.7253C27.6098 33.0074 27.6391 33.3278 27.7084 33.6221C27.0984 32.9599 26.9843 32.149 26.5578 32.0375C26.3688 31.9857 26.1489 32.0747 25.9456 32.3342C26.1605 32.8825 26.1489 33.5179 26.3694 33.9425C26.5373 34.2599 26.5722 34.2892 26.6469 34.3574C26.827 34.5 26.7251 34.7552 26.6979 34.9404L26.4669 36.5329H26.078L26.3339 34.9745C26.4126 34.5 25.201 34.5 24.5805 33.5947C24.0515 34.2745 22.5696 34.1046 21.9275 33.9986C21.6693 33.9559 21.4167 33.9742 21.2743 34.2544C21.1912 34.411 21.0516 34.3641 20.9669 34.3422L19.7974 34.0644C19.5918 34.012 19.5026 34.0564 19.4112 34.2642L19.1775 34.7966C19.1259 34.9215 19.1293 35.0129 19.2223 35.1134L19.3326 35.2438C19.2655 35.4991 19.055 35.6934 19.055 35.6934L18.8002 35.3772C18.6755 35.2182 18.6689 34.9867 18.7669 34.7613L19.1453 33.892C19.1908 33.7957 19.2716 33.6909 19.4301 33.6909L20.8771 33.6666L20.4339 32.8727C20.1043 32.2775 20.6516 31.2169 20.5702 30.7155C20.5286 31.3881 19.7896 31.0811 19.6755 31.1724ZM25.6974 34.8399L25.0725 36.5329H24.6853L25.309 34.8935C25.3739 34.6815 25.2514 34.5828 25.0947 34.3513C25.3268 34.4951 25.4924 34.5895 25.7727 34.7071C25.7489 34.7552 25.7196 34.782 25.6974 34.8399ZM18.0833 34.648L18.7858 33.9931L18.6789 33.7585C18.6024 33.5904 18.6434 33.5807 18.7243 33.5136L19.0955 33.2096C19.1808 33.1323 19.2716 33.1414 19.3758 33.1688L20.4899 33.4564H19.3148C19.0434 33.4765 18.9647 33.5904 18.8667 33.8122L18.7858 33.9931L18.4839 34.676C18.3814 34.9106 18.3276 35.2243 18.5974 35.5776L18.8107 35.8573L18.378 36.8198H18.7426L19.0417 36.1521C19.0655 36.1278 19.5076 35.6843 19.6013 35.2243C19.4738 35.1098 19.3824 35.03 19.4533 34.8697L19.5891 34.5505C19.6334 34.4445 19.6489 34.4013 19.7785 34.4293L20.9469 34.7071C21.0926 34.7516 21.3064 34.8216 21.4627 34.5633C21.6222 34.2947 21.6444 34.3233 22.0156 34.3641L22.6122 34.4335C23.4277 34.5188 24.2415 34.2946 24.5589 34.0181C24.6697 34.2971 24.8902 34.5091 24.9938 34.726C25.0315 34.8064 24.9683 34.9197 24.9179 35.061L24.2482 36.8198H25.2808L25.8653 35.2146C25.9195 35.061 25.9982 34.9386 26.0586 34.8771L25.7234 36.8198H26.7256L26.9915 34.8978C27.0503 34.4707 27.0153 34.3324 26.8287 34.157C26.4109 33.7695 26.4204 32.955 26.2857 32.4609C26.3567 32.4158 26.4386 32.3933 26.5373 32.4061C26.7561 32.4274 26.9201 33.0409 27.1777 33.4357C27.6901 34.2282 28.3904 35.1031 29.192 33.8706C29.1144 33.7305 29.0308 33.602 28.9338 33.4801L28.71 33.1914C28.5798 33.0318 27.9594 32.2514 27.7001 31.9699C27.1129 31.318 26.2093 31.418 25.8492 31.7335C25.0348 31.2638 24.175 31.7573 23.9717 31.739L22.5684 31.6458C22.5047 31.6409 22.4072 31.6178 22.3391 31.4972L22.6 31.4033C22.3557 30.2867 21.7424 29.3509 20.6705 29.1907C20.6705 29.1907 20.6079 28.8379 20.4439 28.7697L20.1242 29.1846C20.0334 29.198 19.9353 29.2291 19.855 29.2674L18.4866 28.7076L19.5143 29.8486C19.5143 29.8486 18.9808 30.6784 18.8295 30.8483C18.7282 31.0031 18.7381 31.1243 18.8512 31.273L19.05 31.5605C19.1536 31.7098 19.2655 31.7037 19.4301 31.6117L19.6556 31.4831C19.7536 31.3924 20.0827 31.5709 20.2245 31.4283C20.1336 31.7536 20.0888 32.0655 20.0683 32.3135L19.1453 32.1923C18.9442 32.1624 18.8528 32.1923 18.7298 32.297L17.9432 32.9635C17.6867 33.1804 17.6069 33.5539 17.7648 33.9182L18.0833 34.648ZM21.086 12.7529C21.4594 13.0368 22.1225 13.3414 22.1225 13.3414V12.8565L20.6622 12.2412C20.6622 12.2412 20.6622 12.4386 21.086 12.7529ZM22.1225 12.1681V11.6838L20.4655 11.0331C20.4655 11.0331 20.6622 11.264 21.086 11.5814C21.4594 11.8641 22.1225 12.1681 22.1225 12.1681ZM22.1225 11.0679V10.5817L20.3076 9.847C20.3076 9.847 20.6622 10.1626 21.086 10.4794C21.4594 10.7645 22.1225 11.0679 22.1225 11.0679Z" fill="#1A1919"/>
<path fill-rule="evenodd" clip-rule="evenodd" d="M27.2231 17.6841H29.079C29.0025 17.3874 28.7139 17.0883 28.1715 17.0883C27.6597 17.0883 27.3511 17.4148 27.2231 17.6841ZM25.2808 9.84717L23.4682 10.5818V11.0679C23.4682 11.0679 24.1324 10.7646 24.5064 10.4795C24.9285 10.1627 25.2808 9.84717 25.2808 9.84717ZM24.9279 12.2412L23.4682 12.8564V13.3413C23.4682 13.3413 24.1324 13.0368 24.5064 12.7529C24.9279 12.4386 24.9279 12.2412 24.9279 12.2412ZM25.1252 11.0332L23.4682 11.6838V12.1681C23.4682 12.1681 24.133 11.8653 24.5064 11.5815C24.9279 11.2641 25.1252 11.0332 25.1252 11.0332ZM17.4142 17.0883C16.873 17.0883 16.5849 17.3874 16.5073 17.6841H18.3654C18.233 17.4142 17.9294 17.0883 17.4142 17.0883Z" fill="#1A1919"/>
<path fill-rule="evenodd" clip-rule="evenodd" d="M22.7957 9.60644L19.813 8.31066C20.0667 7.65212 21.2356 7.08982 22.7957 7.08982C24.3551 7.08982 25.523 7.65212 25.7761 8.31066L22.7957 9.60644ZM25.0149 13.6546L23.0056 14.8176V10.1194L25.7362 9.09958L25.0149 13.6546ZM27.3655 15.6132C26.6115 15.757 25.9639 16.7713 25.4332 17.6845L25.3739 17.7893H24.8078L24.8055 17.8971C24.7468 18.6025 24.1391 19.5602 22.794 19.5602C22.1735 19.5602 21.7065 19.3513 21.3841 19.0662C21.1049 18.817 20.9315 18.5093 20.8451 18.2145C20.8135 18.1079 20.793 18 20.7847 17.8971L20.7797 17.7893H20.2179L20.157 17.6845C19.6235 16.7713 18.9764 15.757 18.2258 15.6132L20.2761 14.3034L22.7957 15.8094L25.3124 14.3034L27.3655 15.6132ZM30.1316 19.0662C29.9161 19.6814 29.7433 20.3491 29.7433 21.018V28.1914H28.9848C28.6397 27.8241 28.3489 26.602 28.3489 26.602C28.1599 27.0425 28.3766 27.9331 28.5782 28.1914H27.6015C27.3589 27.8314 27.1495 26.5575 27.1495 26.5575C26.8575 26.9237 27.0425 27.9154 27.2237 28.1914H26.5744C26.534 27.6821 26.6664 27.1265 26.6664 27.1265C26.3268 27.0577 25.9656 26.8615 25.9661 26.4461C26.1384 26.6227 26.2082 26.6197 26.4459 26.6142L26.7218 26.3754C25.8066 26.4083 25.7639 25.3032 26.4897 24.7866C25.7639 24.8122 25.2227 24.3376 25.4864 23.4908C24.9706 23.1978 24.7889 22.2377 25.1701 21.8149C24.8942 21.4859 24.8482 20.8395 25.0249 20.3979C24.6598 20.3979 24.2482 20.2377 24.0189 19.9635C24.0011 19.9726 23.9801 19.9787 23.9613 19.9861C24.4183 19.7808 24.8055 19.4621 25.067 19.0662H30.1316ZM29.7449 33.3166C29.7449 34.8128 29.1161 35.9502 28.0702 36.5795L28.4458 35.7419H28.0829L27.6021 36.8153C27.1046 37.023 26.5384 37.1364 25.9146 37.1364C24.0056 37.1364 23.5009 37.2216 22.7968 37.9953C22.0882 37.2216 21.5846 37.1364 19.6789 37.1364C19.0584 37.1364 18.4939 37.0249 17.9986 36.8196H18.0108L18.4923 35.7419H18.1305L17.7084 36.6849C17.607 36.6325 17.51 36.5765 17.4158 36.5144L17.7626 35.7419H17.402L17.1444 36.3176C16.3267 35.656 15.8469 34.6228 15.8469 33.3166V28.6124H29.7449V33.3166ZM20.2844 24.725L20.8694 24.8055C20.9137 25.1576 20.8301 25.7564 20.6212 26.0903L20.0534 25.9106C20.2046 25.5152 20.2423 25.146 20.2844 24.725ZM19.4401 24.2535C19.4401 24.2535 19.9786 24.2255 20.1304 24.2882C20.2423 24.3394 20.1659 24.5465 20.0213 24.5234C19.87 24.5033 19.4401 24.2535 19.4401 24.2535ZM19.4047 21.9063L18.9216 23.8429L19.0867 20.7183L19.8351 20.0141L20.2163 20.9334L19.2534 23.9678L19.5077 21.9251C19.5315 21.7832 19.4263 21.7668 19.4047 21.9063ZM19.0335 25.1356C18.7809 25.2465 18.5222 25.0954 18.6019 24.9157C18.7188 25.0327 19.0462 24.9754 19.0462 24.9754L19.0335 25.1356ZM18.5582 25.394C18.6756 25.5176 19.0291 25.4707 19.0291 25.4707L19.0418 25.5487C18.8872 25.7747 18.4601 25.6724 18.5582 25.394ZM18.0036 24.1457C17.8685 24.0464 17.9294 23.8313 18.0795 23.8313C18.243 23.8356 18.4629 24.0403 18.6789 24.142C18.6789 24.142 18.1122 24.2267 18.0036 24.1457ZM18.541 25.8643C18.541 25.8643 18.7028 25.9386 18.9089 25.9569C18.885 26.0805 18.7975 26.1999 18.6596 26.1658C18.5443 26.1378 18.4923 25.98 18.541 25.8643ZM18.9216 24.6934C18.6496 24.7902 18.5299 24.574 18.5416 24.39C19.075 24.1768 19.3127 24.3144 19.4684 24.4235C19.6113 24.5234 19.731 24.8055 19.9232 24.9821C19.8922 25.2228 19.8246 25.57 19.7465 25.8027C19.2014 25.6492 19.1731 25.1204 19.3759 24.7994C19.2623 24.6525 19.1415 24.6154 18.9216 24.6934ZM21.2849 24.8652L21.8683 24.9413C21.9259 25.294 21.8168 26.0434 21.5968 26.401L21.0018 26.2115C21.24 25.8685 21.327 25.2587 21.2849 24.8652ZM22.2888 25.0004L22.7702 25.0662C22.8472 25.506 22.7968 26.2669 22.5414 26.6995L21.9818 26.521C22.2267 26.1536 22.3425 25.3982 22.2888 25.0004ZM23.1513 25.118H23.1618C23.287 25.1387 23.4189 25.1149 23.5391 25.0607C23.7989 25.4707 24.0028 26.401 23.6903 26.9815C23.5136 26.9852 23.3397 26.9511 23.1779 26.9005L23.0483 26.8579C23.312 26.4083 23.2737 25.6145 23.1513 25.118ZM23.887 24.8055L24.2294 24.4375C24.5767 24.7713 25.0332 25.5176 24.8909 26.2261L24.518 26.602C24.4416 26.683 24.3618 26.7439 24.2809 26.7982C24.513 26.1658 24.2172 25.1911 23.887 24.8055ZM25.8897 25.0156C25.816 25.1253 25.7551 25.2532 25.7163 25.3921L25.3014 25.8106C25.3845 25.1442 24.9767 24.354 24.6044 24.033L25.0454 23.5572L25.1335 23.6547C24.9861 24.0799 25.2742 24.9157 25.8897 25.0156ZM24.7889 21.7881C24.5706 22.2456 24.5928 22.7732 24.8499 23.252L24.6787 23.4366C23.9347 23.3342 23.641 22.1146 23.641 22.1146C23.6261 22.2243 23.6172 22.3315 23.6189 22.4405C23.1851 22.2639 22.9103 21.8392 22.9325 21.2587C23.0965 21.3592 23.2815 21.4305 23.4771 21.4676L23.528 21.1112C23.0084 21.0113 22.7048 20.6543 22.5896 20.2322C22.5646 20.2297 22.5425 20.223 22.5187 20.2212C22.6117 20.2297 22.702 20.2377 22.7968 20.2377C23.1053 20.2377 23.3973 20.1853 23.6721 20.0963C23.8876 20.4344 24.2715 20.6769 24.6554 20.7238C24.5956 21.0004 24.6249 21.3525 24.7889 21.7881ZM20.5232 19.0662C20.8822 19.6059 21.4644 20.0062 22.1541 20.1627C22.2123 20.4478 22.3525 20.7597 22.6261 21.0113C22.5126 21.8502 22.8405 22.6336 23.6615 22.842C23.7469 23.269 23.989 23.5931 24.3923 23.7461L23.8222 24.471C23.605 24.7488 23.3203 24.8371 23.0837 24.8055L20.5348 24.4862C20.6451 24.1749 20.3514 23.8149 19.5448 23.9696L20.547 20.8877L19.9354 19.4579L18.7764 20.5453L18.6917 23.7777L18.1992 23.5109C17.5516 23.2039 17.3632 24.4905 17.9781 24.496L18.2225 24.499C18.2069 24.6312 18.243 24.7774 18.3377 24.8219C18.2225 24.8755 18.187 25.1149 18.3333 25.2002C18.1864 25.2764 18.1665 25.5207 18.2851 25.6261C18.156 25.8643 18.1366 26.3784 18.5837 26.5088C18.9487 26.6142 19.1775 26.181 19.2534 25.9294L23.2195 27.2807C23.7818 27.4579 24.1806 27.358 24.6465 26.9084L25.6819 25.913C25.5518 26.5636 25.765 27.1509 26.216 27.3446C26.216 27.3446 26.1506 27.9295 26.1711 28.1914H15.8469V21.018C15.8469 20.3491 15.6713 19.6814 15.4625 19.0662H20.5232ZM19.8534 9.09958L22.5818 10.1194V14.8176L20.5719 13.6546L19.8534 9.09958ZM26.483 8.54033C26.483 7.39198 24.7291 6.36426 22.794 6.36426C20.8578 6.36426 19.1039 7.39198 19.1039 8.54033L19.1437 8.82178L19.9143 13.6991L16.2563 16.0439C15.8674 16.2943 15.3805 16.9876 15.3184 17.6845H15.986C16.0962 16.9882 16.5965 16.2157 17.5294 16.2638C18.3737 16.3126 18.874 16.8773 19.3709 17.6845L19.4989 17.8971L19.6828 18.2145H14.3041C14.6991 19.0875 15.0752 20.0135 15.0752 21.018V33.3166C15.0752 36.4815 17.2851 37.988 19.6789 37.988C21.527 37.988 21.7763 37.8954 22.7968 39.0176C23.8139 37.8954 24.0621 37.988 25.9146 37.988C28.3057 37.988 30.5177 36.4815 30.5177 33.3166V21.018C30.5177 20.0135 30.8922 19.0875 31.2872 18.2145H25.9047L26.0897 17.8971L26.2182 17.6845C26.7129 16.8773 27.2148 16.3126 28.0597 16.2638C28.9898 16.2157 29.4923 16.9882 29.6025 17.6845H30.2684C30.2092 16.9876 29.7194 16.2943 29.3311 16.0439L25.6736 13.6991L26.4453 8.82178L26.483 8.54033Z" fill="#1A1919"/>
<path fill-rule="evenodd" clip-rule="evenodd" d="M29.4274 23.7015L29.4329 23.3421C28.4291 23.3159 28.1998 22.0146 28.1998 22.0146C27.9056 22.9729 28.6718 23.6869 29.4274 23.7015ZM28.1599 25.9057L28.0596 25.5658C27.2037 25.8064 26.7611 24.315 26.7611 24.315C26.4874 25.3983 27.4425 26.1659 28.1599 25.9057ZM28.7549 24.5234C27.7322 24.7013 27.3123 23.3933 27.3123 23.3933C27.1993 24.1055 27.6187 24.828 28.2956 24.9042C28.1427 25.8345 28.9277 26.3103 29.6074 25.9795L29.5094 25.6553C28.9188 25.8735 28.3649 25.2307 28.7549 24.5234ZM28.1427 20.7906L28.1521 20.4306C26.8027 20.1247 26.9151 19.103 26.9151 19.103C26.6237 20.065 27.3899 20.7754 28.1427 20.7906Z" fill="#1A1919"/>
<path fill-rule="evenodd" clip-rule="evenodd" d="M19.5921 35.7417L19.1086 36.8198H19.4718L19.9535 35.7417H19.5921Z" fill="#1A1919"/>
<path fill-rule="evenodd" clip-rule="evenodd" d="M20.3196 35.7417L19.8383 36.8198H20.2044L20.6827 35.7417H20.3196Z" fill="#1A1919"/>
<path fill-rule="evenodd" clip-rule="evenodd" d="M23.2421 35.7417L22.7612 36.8198H23.1235L23.6056 35.7417H23.2421Z" fill="#1A1919"/>
<path fill-rule="evenodd" clip-rule="evenodd" d="M23.9739 35.7417L23.4896 36.8198H23.8549L24.3345 35.7417H23.9739Z" fill="#1A1919"/>
<path fill-rule="evenodd" clip-rule="evenodd" d="M22.5124 35.7417L22.0298 36.8198H22.3929L22.8755 35.7417H22.5124Z" fill="#1A1919"/>
<path fill-rule="evenodd" clip-rule="evenodd" d="M26.7798 36.8198H27.1438L27.626 35.7417H27.2624L26.7798 36.8198Z" fill="#1A1919"/>
<path fill-rule="evenodd" clip-rule="evenodd" d="M21.0518 35.7417L20.5701 36.8198H20.9336L21.4163 35.7417H21.0518Z" fill="#1A1919"/>
<path fill-rule="evenodd" clip-rule="evenodd" d="M21.7798 35.7417L21.2976 36.8198H21.6637L22.145 35.7417H21.7798Z" fill="#1A1919"/>
<path fill-rule="evenodd" clip-rule="evenodd" d="M20.1271 29.9512C20.0617 29.9512 20.003 30.0224 20.003 30.1138C20.003 30.2028 20.0617 30.2759 20.1271 30.2759C20.1964 30.2759 20.2551 30.2028 20.2551 30.1138C20.2551 30.0224 20.1964 29.9512 20.1271 29.9512ZM19.9792 5.04938L20.5542 3.7091L21.6201 4.33172L22.7968 3.05419L23.9734 4.33172L25.0382 3.7091L25.6066 5.04938L26.3151 4.92997C26.1334 5.30464 25.9966 5.62997 25.8708 6.08932C25.0964 5.59219 23.9463 5.2096 22.7968 5.2096C21.6434 5.2096 20.4961 5.59219 19.721 6.08932C19.592 5.62997 19.4573 5.30464 19.274 4.92997L19.9792 5.04938ZM22.7968 5.63667C24.2942 5.63667 25.493 6.18192 26.1556 6.76859C26.1556 6.76859 26.3539 5.46121 27.0248 4.31344L25.8176 4.46209L25.1872 2.98535L23.9734 3.67925L22.7968 2.39502L21.6201 3.67925L20.4041 2.98535L19.7726 4.46209L18.5665 4.31344C19.2385 5.46121 19.4346 6.76859 19.4346 6.76859C20.0955 6.18192 21.2977 5.63667 22.7968 5.63667Z" fill="#1A1919"/>
<path fill-rule="evenodd" clip-rule="evenodd" d="M24.0277 2.99478C24.2028 3.01062 24.3585 2.86502 24.3734 2.67495C24.3906 2.48305 24.1346 1.96826 24.1346 1.96826C24.1346 1.96826 23.7513 2.42151 23.7391 2.61524C23.7225 2.80532 23.8543 2.97529 24.0277 2.99478ZM26.0049 3.78249C26.1606 3.87509 26.3506 3.80686 26.4348 3.63506C26.5196 3.46631 26.4642 2.8839 26.4642 2.8839C26.4642 2.8839 25.9551 3.13673 25.8708 3.30852C25.7911 3.47788 25.8492 3.68928 26.0049 3.78249ZM21.5608 2.99478C21.7392 2.97529 21.8683 2.80532 21.8528 2.61524C21.8367 2.42151 21.4572 1.96826 21.4572 1.96826C21.4572 1.96826 21.2018 2.48305 21.2184 2.67495C21.2323 2.86502 21.3885 3.01062 21.5608 2.99478ZM19.587 3.78249C19.7421 3.68928 19.8013 3.47788 19.7182 3.30852C19.6363 3.13673 19.126 2.8839 19.126 2.8839C19.126 2.8839 19.0717 3.46631 19.1571 3.63506C19.2385 3.80686 19.4313 3.87509 19.587 3.78249ZM41.4584 15.9941C41.5881 16.3127 41.8468 17.4191 41.2296 18.2634C40.5266 16.7179 39.5594 15.394 38.7766 14.8232C38.6054 14.7008 38.8713 14.4857 39.3533 14.4163C40.8108 14.1123 42.5182 14.7903 43.3326 15.0285C42.9536 15.3398 42.6462 15.4799 42.2595 15.5323C42.8506 16.0776 43.2816 16.5387 43.5863 17.0529C43.0135 17.2083 42.6916 16.8105 41.4584 15.9941ZM43.2971 15.7315C43.7181 15.5671 44.0439 15.1254 44.2062 14.7166C43.1342 14.5472 40.2878 13.2326 37.9472 14.3029C38.8237 13.3879 39.6109 13.2697 39.6857 11.9538C40.0491 12.2414 40.6635 12.4034 41.0091 11.7175C40.7676 10.934 40.1588 11.5682 40.0729 11.3531C39.9538 11.0528 40.8418 11.4451 41.0313 10.4271C40.341 10.1664 40.1344 10.7866 40.0114 10.6428C39.8973 10.5057 40.4496 10.2444 40.043 9.42378C39.3245 9.88617 39.6984 10.4077 39.5466 10.4661C39.3627 10.5459 39.5073 9.90993 38.7134 9.93856C38.6353 10.878 39.4596 10.9066 39.3245 11.0565C39.161 11.238 38.9455 10.5167 38.3456 10.8822C38.3561 11.6407 38.914 12.0568 39.4907 11.8777C39.3965 13.3185 38.196 13.0498 37.3002 14.6721C39.1954 15.7407 40.053 17.6037 41.2191 18.8921C41.6041 18.5918 42.2623 17.2558 42.2623 17.2558C43.5243 18.3304 44.4117 17.2601 44.4117 17.2601C43.9774 16.7709 43.9619 16.3986 43.2971 15.7315ZM22.4439 41.2891L21.6223 41.2556L21.5287 41.6169L21.6317 41.623C21.6661 41.623 21.6661 41.5523 21.696 41.5139C21.7121 41.4999 21.8611 41.4731 21.9785 41.4865L22.3225 41.5152C22.1203 41.9788 21.5902 42.415 21.5968 42.7226C21.6046 42.8865 21.7558 42.9188 21.8461 42.9145C22.0118 42.9078 22.0633 42.7799 22.1065 42.5825C22.2068 42.1262 22.4073 41.7789 22.5525 41.2556L22.4505 41.2593L22.4439 41.2891ZM23.0056 41.8283L23.0178 41.5499H23.7313L23.6937 41.2392C23.4987 41.2465 23.2123 41.3166 22.9497 41.3184L22.8998 41.9252C23.2305 41.9093 23.446 42.0677 23.446 42.4485C23.446 42.5904 23.3613 42.8554 23.2123 42.8755C23.1779 42.881 23.1325 42.8682 23.1109 42.8493C23.0394 42.7902 23.133 42.7251 23.133 42.6276C23.133 42.5009 23.0156 42.4564 22.9375 42.4722C22.815 42.4808 22.7713 42.5685 22.7713 42.6757C22.7713 42.8993 23.0732 42.9614 23.2023 42.9614C23.4953 42.9614 23.8333 42.7823 23.8333 42.4174C23.8333 41.9373 23.3447 41.8386 23.0056 41.8283ZM24.7158 42.0756C24.4615 42.0756 24.4249 41.64 24.4249 41.4286C24.4249 41.3689 24.4737 41.2849 24.5307 41.2849C24.7623 41.2849 24.826 41.8776 24.8449 42.0446C24.8072 42.0604 24.7623 42.0756 24.7158 42.0756ZM24.5535 41.2026C24.2975 41.2026 24.0876 41.4122 24.0876 41.6985C24.0876 42.1506 24.5291 42.2992 24.8565 42.128C24.8964 42.4789 24.8316 42.7305 24.7108 42.7391C24.6078 42.7391 24.6227 42.6538 24.6078 42.5813C24.5806 42.4448 24.4826 42.4083 24.3817 42.4448C24.2748 42.4789 24.2587 42.5825 24.277 42.6611C24.3247 42.8384 24.5241 42.842 24.6199 42.8292C25.0399 42.7768 25.216 42.4339 25.216 42.0531C25.216 41.612 24.9861 41.2026 24.5535 41.2026ZM21.0467 41.11C21.0085 41.1618 20.8323 41.4031 20.4539 41.7138L20.4855 41.7741C20.5271 41.7497 20.5941 41.7156 20.7082 41.64L20.4855 42.4972C20.4728 42.5435 20.4213 42.5478 20.3963 42.5435L20.2639 42.5228L20.239 42.6233L20.9636 42.7659L20.9858 42.6647L20.8606 42.6349C20.8235 42.6233 20.8007 42.5941 20.8068 42.5478L21.137 41.1253L21.0467 41.11Z" fill="#1A1919"/>
<path fill-rule="evenodd" clip-rule="evenodd" d="M26.5323 42.1217L25.8897 39.8237C27.2591 39.5124 28.212 39.1926 28.9394 38.8837V40.3172L30.0684 40.8174C29.1144 41.2956 27.9311 41.7702 26.5323 42.1217ZM22.7967 43.4662C21.5198 43.4662 20.2727 43.2561 19.2074 42.9685L19.8855 40.5578C20.3348 40.673 21.4594 40.8247 22.7967 40.8247C24.1346 40.8247 25.2548 40.673 25.7063 40.5578L26.3866 42.9685C25.3163 43.2561 24.0698 43.4662 22.7967 43.4662ZM15.5212 40.8174L16.6513 40.3172V38.8837C17.3787 39.1926 18.3316 39.5124 19.701 39.8237L19.0589 42.1217C17.6634 41.7702 16.4768 41.2956 15.5212 40.8174ZM29.2889 40.0193V38.2605C28.053 38.8837 26.4797 39.3888 24.457 39.5886L24.3651 40.2173C24.5368 40.2441 24.7551 40.2673 25.0454 40.288C24.2958 40.4007 23.3274 40.4555 22.7967 40.4555C22.2649 40.4555 21.2976 40.4007 20.547 40.288C20.8367 40.2673 21.0533 40.2441 21.225 40.2173L21.1336 39.5886C19.1105 39.3888 17.5355 38.8837 16.3028 38.2605V40.0193L14.6259 40.7759C15.8674 41.4863 17.2967 42.0657 18.9487 42.5335L18.7531 43.2701C19.6994 43.5747 21.2112 43.8872 22.7967 43.8872C24.3817 43.8872 25.8924 43.5747 26.8386 43.2701L26.6436 42.5335C28.2934 42.0657 29.726 41.4863 30.9675 40.7759L29.2889 40.0193ZM2.00267 17.0525C2.30903 16.5384 2.73782 16.0772 3.33281 15.5344C2.94335 15.4795 2.6381 15.3394 2.2564 15.0281C3.07077 14.7899 4.78315 14.1119 6.2407 14.4159C6.71935 14.4853 6.9897 14.7004 6.81408 14.8216C6.03074 15.3936 5.06292 16.7175 4.35935 18.2624C3.74387 17.4187 4.00424 16.3123 4.13166 15.9937C2.90069 16.8107 2.57993 17.2079 2.00267 17.0525ZM3.32837 17.2554C3.32837 17.2554 3.98762 18.5914 4.37043 18.8911C5.5388 17.6033 6.39693 15.7403 8.29047 14.6717C7.39411 13.0494 6.1914 13.3217 6.10221 11.8773C6.6778 12.0564 7.23456 11.6384 7.2462 10.8818C6.64401 10.5181 6.42906 11.2412 6.26674 11.056C6.13212 10.9037 6.95646 10.8775 6.87835 9.93934C6.08337 9.91193 6.22907 10.5455 6.04237 10.4657C5.89335 10.406 6.26674 9.88512 5.54544 9.42334C5.14048 10.2476 5.69447 10.5047 5.57979 10.6424C5.45736 10.7862 5.24906 10.166 4.55934 10.4267C4.74659 11.4447 5.63852 11.0524 5.51719 11.3527C5.43243 11.5678 4.82359 10.9336 4.58427 11.717C4.92719 12.403 5.54268 12.241 5.90332 11.9546C5.98088 13.2748 6.76589 13.3851 7.64452 14.3025C5.30446 13.2321 2.45695 14.5456 1.38165 14.718C1.54729 15.125 1.87193 15.5667 2.29352 15.7275C1.62928 16.4007 1.61377 16.7711 1.17944 17.2597C1.17944 17.2597 2.06472 18.3301 3.32837 17.2554ZM21.7707 16.274V17.0489C22.0134 16.7278 22.4821 16.7912 22.4821 16.7912V17.9054C22.4821 17.9054 22.466 18.4562 22.2887 18.6919H23.3042C23.1275 18.4562 23.1108 17.9054 23.1108 17.9054V16.7912C23.1108 16.7912 23.579 16.7278 23.8222 17.0489V16.274H21.7707Z" fill="#1A1919"/>
</svg>
