<svg width="43" height="43" viewBox="0 0 43 43" fill="none" xmlns="http://www.w3.org/2000/svg">
<circle cx="21.5" cy="21.5" r="21" stroke="black" stroke-opacity="0.27"/>
<path d="M21.5 27L20.987 27.5472C21.2755 27.8176 21.7245 27.8176 22.013 27.5472L21.5 27ZM14.013 18.9528C13.7108 18.6695 13.2361 18.6849 12.9528 18.987C12.6696 19.2892 12.6849 19.7639 12.987 20.0472L14.013 18.9528ZM30.013 20.0472C30.3151 19.7639 30.3305 19.2892 30.0472 18.987C29.7639 18.6849 29.2892 18.6695 28.987 18.9528L30.013 20.0472ZM22.013 26.4528L14.013 18.9528L12.987 20.0472L20.987 27.5472L22.013 26.4528ZM28.987 18.9528L20.987 26.4528L22.013 27.5472L30.013 20.0472L28.987 18.9528Z" fill="black" fill-opacity="0.27"/>
</svg>
