<svg width="77" height="28" viewBox="0 0 77 28" fill="none" xmlns="http://www.w3.org/2000/svg">
<path d="M39.822 8.85742C39.7787 12.6897 42.9144 14.8282 45.2676 16.1011C47.6905 17.4048 48.5054 18.2414 48.4961 19.4081C48.4775 21.1943 46.5618 21.9744 44.7713 22.0138C41.6449 22.0668 39.8235 21.0796 38.3825 20.332L37.2631 26.1625C38.7134 26.9016 41.3975 27.5466 44.1822 27.5757C50.7164 27.5757 54.9916 24.0069 55.0148 18.4723C55.0395 11.4579 46.2356 11.061 46.2943 7.92159C46.316 6.97037 47.137 5.95413 48.9352 5.69751C49.8258 5.56748 52.2842 5.46654 55.0705 6.89509L56.1636 1.24933C54.2998 0.471386 52.325 0.0692584 50.333 0.0620117C44.1838 0.0620117 39.8575 3.68043 39.8189 8.85742H39.822ZM66.6653 0.547889C66.0972 0.541742 65.5406 0.724545 65.0675 1.0726C64.5944 1.42066 64.2267 1.91793 64.012 2.49995L54.6824 27.16H61.2119L62.5122 23.1874H70.4906L71.2451 27.16H77L71.978 0.547889H66.6653ZM67.5775 7.7334L69.4623 17.7264H64.3012L67.5775 7.7334ZM31.9055 0.547889L26.7583 27.16H32.9801L38.1258 0.547889H31.9055ZM22.7011 0.547889L16.2241 18.6622L13.6064 3.25957C13.2972 1.54873 12.085 0.547889 10.7367 0.547889H0.154618L0 1.32119C2.17394 1.84299 4.63855 2.68986 6.13835 3.58462C7.05369 4.13551 7.315 4.61113 7.61651 5.92334L12.5782 27.16H19.1541L29.2353 0.547889H22.7011Z" fill="url(#paint0_linear_14_79)"/>
<defs>
<linearGradient id="paint0_linear_14_79" x1="0" y1="13.8188" x2="77" y2="13.8188" gradientUnits="userSpaceOnUse">
<stop stop-color="#222357"/>
<stop offset="1" stop-color="#254AA5"/>
</linearGradient>
</defs>
</svg>
