<svg width="43" height="43" viewBox="0 0 43 43" fill="none" xmlns="http://www.w3.org/2000/svg">
<circle cx="21.5" cy="21.5" r="21" stroke="#2016A1"/>
<path d="M21.5 18.5L22.013 17.9528C21.7245 17.6824 21.2755 17.6824 20.987 17.9528L21.5 18.5ZM28.987 26.5472C29.2892 26.8305 29.7639 26.8151 30.0472 26.513C30.3305 26.2108 30.3151 25.7361 30.013 25.4528L28.987 26.5472ZM12.987 25.4528C12.6849 25.7361 12.6695 26.2108 12.9528 26.513C13.2361 26.8151 13.7108 26.8305 14.013 26.5472L12.987 25.4528ZM20.987 19.0472L28.987 26.5472L30.013 25.4528L22.013 17.9528L20.987 19.0472ZM14.013 26.5472L22.013 19.0472L20.987 17.9528L12.987 25.4528L14.013 26.5472Z" fill="#2016A1"/>
</svg>
