<svg width="58" height="48" viewBox="0 0 58 48" fill="none" xmlns="http://www.w3.org/2000/svg">
<path opacity="0.05" d="M18.1909 24.0638C20.4202 24.9758 22.1429 26.4451 23.3589 28.4718C24.6762 30.3971 25.3349 32.7278 25.3349 35.4638C25.3349 39.1118 24.1695 42.1011 21.8389 44.4318C19.5082 46.7625 16.6202 47.9278 13.1749 47.9278C9.52686 47.9278 6.53753 46.7625 4.20686 44.4318C1.87619 42.1011 0.71086 39.1118 0.71086 35.4638C0.71086 33.6398 0.913527 31.8665 1.31886 30.1438C1.82553 28.4211 2.73753 25.8371 4.05486 22.3918L12.1109 0.80779H24.2709L18.1909 24.0638ZM50.4149 24.0638C52.6442 24.9758 54.3669 26.4451 55.5829 28.4718C56.9002 30.3971 57.5589 32.7278 57.5589 35.4638C57.5589 39.1118 56.3935 42.1011 54.0629 44.4318C51.7322 46.7625 48.8442 47.9278 45.3989 47.9278C41.7509 47.9278 38.7615 46.7625 36.4309 44.4318C34.1002 42.1011 32.9349 39.1118 32.9349 35.4638C32.9349 33.6398 33.1375 31.8665 33.5429 30.1438C34.0495 28.4211 34.9615 25.8371 36.2789 22.3918L44.3349 0.80779H56.4949L50.4149 24.0638Z" fill="#2016A1"/>
</svg>
